G75*
%MOIN*%
%OFA0B0*%
%FSLAX24Y24*%
%IPPOS*%
%LPD*%
%AMOC8*
5,1,8,0,0,1.08239X$1,22.5*
%
%ADD10R,0.0552X0.0552*%
%ADD11C,0.0552*%
%ADD12C,0.5080*%
%ADD13R,0.1180X0.2080*%
%ADD14R,0.1419X0.0592*%
%ADD15R,0.0867X0.0867*%
%ADD16R,0.0867X0.0710*%
%ADD17R,0.0552X0.0297*%
%ADD18R,0.0671X0.0415*%
%ADD19R,0.0950X0.0320*%
%ADD20R,0.0474X0.0513*%
%ADD21R,0.0513X0.0474*%
%ADD22R,0.0671X0.0592*%
%ADD23C,0.0580*%
D10*
X012497Y009386D03*
X012497Y010386D03*
D11*
X011497Y010386D03*
X013497Y010386D03*
X013497Y009386D03*
X011497Y009386D03*
X010747Y008469D03*
X008747Y008469D03*
X008747Y006469D03*
X010747Y006469D03*
X011497Y012386D03*
X013497Y012386D03*
X025497Y008469D03*
X027497Y008469D03*
X027497Y006469D03*
X025497Y006469D03*
D12*
X020247Y009844D03*
D13*
X015947Y009844D03*
X024547Y009844D03*
D14*
X015497Y005756D03*
X015497Y002331D03*
D15*
X012678Y003719D03*
X023816Y003719D03*
D16*
X026178Y004181D03*
X026178Y003256D03*
X010316Y003256D03*
X010316Y004181D03*
D17*
X006759Y003468D03*
X006759Y003094D03*
X006759Y002720D03*
X005735Y002720D03*
X005735Y003468D03*
D18*
G36*
X001436Y011972D02*
X001909Y012445D01*
X002202Y012152D01*
X001729Y011679D01*
X001436Y011972D01*
G37*
G36*
X002438Y012974D02*
X002911Y013447D01*
X003204Y013154D01*
X002731Y012681D01*
X002438Y012974D01*
G37*
G36*
X033806Y001881D02*
X033333Y001408D01*
X033040Y001701D01*
X033513Y002174D01*
X033806Y001881D01*
G37*
G36*
X034808Y002883D02*
X034335Y002410D01*
X034042Y002703D01*
X034515Y003176D01*
X034808Y002883D01*
G37*
D19*
X021027Y002969D03*
X021027Y003469D03*
X021027Y003969D03*
X021027Y004469D03*
X018967Y004469D03*
X018967Y003969D03*
X018967Y003469D03*
X018967Y002969D03*
D20*
X003997Y002759D03*
X003997Y003428D03*
X017997Y004884D03*
X017997Y005553D03*
X022122Y003928D03*
X022122Y003259D03*
X022122Y002553D03*
X022122Y001884D03*
G36*
X032854Y002532D02*
X033189Y002867D01*
X033550Y002506D01*
X033215Y002171D01*
X032854Y002532D01*
G37*
G36*
X033328Y003005D02*
X033663Y003340D01*
X034024Y002979D01*
X033689Y002644D01*
X033328Y003005D01*
G37*
G36*
X003457Y012171D02*
X003122Y011836D01*
X002761Y012197D01*
X003096Y012532D01*
X003457Y012171D01*
G37*
G36*
X002983Y011698D02*
X002648Y011363D01*
X002287Y011724D01*
X002622Y012059D01*
X002983Y011698D01*
G37*
D21*
X017997Y004303D03*
X017997Y003634D03*
X022122Y004634D03*
X022122Y005303D03*
X008497Y004178D03*
X007497Y004178D03*
X007497Y003509D03*
X008497Y003509D03*
X008497Y002678D03*
X007497Y002678D03*
X007497Y002009D03*
X008497Y002009D03*
D22*
X004872Y002759D03*
X004872Y003428D03*
D23*
X006247Y001969D03*
X020872Y002219D03*
X022872Y004719D03*
X012497Y008594D03*
X014247Y009719D03*
X006747Y011969D03*
M02*
