G75*
%MOIN*%
%OFA0B0*%
%FSLAX24Y24*%
%IPPOS*%
%LPD*%
%AMOC8*
5,1,8,0,0,1.08239X$1,22.5*
%
%ADD10R,0.0472X0.0472*%
%ADD11C,0.0472*%
%ADD12R,0.0591X0.0335*%
%ADD13R,0.0394X0.0433*%
%ADD14C,0.0376*%
%ADD15C,0.0160*%
D10*
X012497Y009386D03*
X012497Y010386D03*
D11*
X011497Y010386D03*
X013497Y010386D03*
X013497Y009386D03*
X011497Y009386D03*
X010747Y008469D03*
X008747Y008469D03*
X008747Y006469D03*
X010747Y006469D03*
X011497Y012386D03*
X013497Y012386D03*
X025497Y008469D03*
X027497Y008469D03*
X027497Y006469D03*
X025497Y006469D03*
D12*
G36*
X002762Y002169D02*
X003178Y001753D01*
X002942Y001517D01*
X002526Y001933D01*
X002762Y002169D01*
G37*
G36*
X001760Y003171D02*
X002176Y002755D01*
X001940Y002519D01*
X001524Y002935D01*
X001760Y003171D01*
G37*
G36*
X033461Y012790D02*
X033045Y013206D01*
X033281Y013442D01*
X033697Y013026D01*
X033461Y012790D01*
G37*
G36*
X034463Y011788D02*
X034047Y012204D01*
X034283Y012440D01*
X034699Y012024D01*
X034463Y011788D01*
G37*
D13*
G36*
X033695Y012201D02*
X033974Y011922D01*
X033669Y011617D01*
X033390Y011896D01*
X033695Y012201D01*
G37*
G36*
X033222Y012674D02*
X033501Y012395D01*
X033196Y012090D01*
X032917Y012369D01*
X033222Y012674D01*
G37*
G36*
X003059Y002278D02*
X002780Y002557D01*
X003085Y002862D01*
X003364Y002583D01*
X003059Y002278D01*
G37*
G36*
X002586Y002752D02*
X002307Y003031D01*
X002612Y003336D01*
X002891Y003057D01*
X002586Y002752D01*
G37*
D14*
X002635Y003607D03*
X001819Y003607D03*
X011697Y008169D03*
X014747Y008719D03*
X008747Y009469D03*
X033676Y011147D03*
X034373Y011147D03*
D15*
X034373Y012114D01*
X033682Y011909D02*
X033676Y011902D01*
X033676Y011147D01*
X033209Y012382D02*
X033209Y012954D01*
X033371Y013116D01*
X014747Y008719D02*
X012247Y008719D01*
X011697Y008169D01*
X010747Y008469D02*
X010747Y011636D01*
X011497Y012386D01*
X011497Y012369D02*
X013497Y012369D01*
X013497Y012386D01*
X008747Y009469D02*
X008747Y008469D01*
X002635Y003607D02*
X002635Y003080D01*
X002599Y003044D01*
X001850Y002845D02*
X001819Y002875D01*
X001819Y003607D01*
X003072Y002570D02*
X003072Y002063D01*
X002852Y001843D01*
M02*
