G75*
%MOIN*%
%OFA0B0*%
%FSLAX24Y24*%
%IPPOS*%
%LPD*%
%AMOC8*
5,1,8,0,0,1.08239X$1,22.5*
%
%ADD10C,0.0000*%
%ADD11C,0.0160*%
%ADD12C,0.0050*%
%ADD13C,0.0140*%
%ADD14C,0.0080*%
%ADD15R,0.2000X0.2000*%
%ADD16R,0.5500X0.3125*%
%ADD17R,0.0250X0.0125*%
D10*
X001747Y000475D02*
X029997Y000475D01*
X030041Y000477D01*
X030084Y000483D01*
X030126Y000492D01*
X030168Y000505D01*
X030208Y000522D01*
X030247Y000542D01*
X030284Y000565D01*
X030318Y000592D01*
X030351Y000621D01*
X030380Y000654D01*
X030407Y000688D01*
X030430Y000725D01*
X030450Y000764D01*
X030467Y000804D01*
X030480Y000846D01*
X030489Y000888D01*
X030495Y000931D01*
X030497Y000975D01*
X030497Y011850D01*
X030495Y011894D01*
X030489Y011937D01*
X030480Y011979D01*
X030467Y012021D01*
X030450Y012061D01*
X030430Y012100D01*
X030407Y012137D01*
X030380Y012171D01*
X030351Y012204D01*
X030318Y012233D01*
X030284Y012260D01*
X030247Y012283D01*
X030208Y012303D01*
X030168Y012320D01*
X030126Y012333D01*
X030084Y012342D01*
X030041Y012348D01*
X029997Y012350D01*
X001747Y012350D01*
X001703Y012348D01*
X001660Y012342D01*
X001618Y012333D01*
X001576Y012320D01*
X001536Y012303D01*
X001497Y012283D01*
X001460Y012260D01*
X001426Y012233D01*
X001393Y012204D01*
X001364Y012171D01*
X001337Y012137D01*
X001314Y012100D01*
X001294Y012061D01*
X001277Y012021D01*
X001264Y011979D01*
X001255Y011937D01*
X001249Y011894D01*
X001247Y011850D01*
X001247Y000975D01*
X001249Y000931D01*
X001255Y000888D01*
X001264Y000846D01*
X001277Y000804D01*
X001294Y000764D01*
X001314Y000725D01*
X001337Y000688D01*
X001364Y000654D01*
X001393Y000621D01*
X001426Y000592D01*
X001460Y000565D01*
X001497Y000542D01*
X001536Y000522D01*
X001576Y000505D01*
X001618Y000492D01*
X001660Y000483D01*
X001703Y000477D01*
X001747Y000475D01*
D11*
X003372Y006725D02*
X003374Y006811D01*
X003380Y006897D01*
X003390Y006982D01*
X003403Y007067D01*
X003421Y007151D01*
X003443Y007234D01*
X003468Y007317D01*
X003497Y007398D01*
X003529Y007477D01*
X003566Y007555D01*
X003606Y007631D01*
X003649Y007706D01*
X003695Y007778D01*
X003745Y007848D01*
X003798Y007916D01*
X003855Y007981D01*
X003914Y008043D01*
X003975Y008103D01*
X004040Y008160D01*
X004107Y008214D01*
X004176Y008264D01*
X004248Y008312D01*
X004322Y008356D01*
X004398Y008397D01*
X004475Y008434D01*
X004554Y008467D01*
X004635Y008497D01*
X004717Y008523D01*
X004800Y008546D01*
X004884Y008564D01*
X004969Y008579D01*
X005054Y008590D01*
X005140Y008597D01*
X005226Y008600D01*
X005311Y008599D01*
X005397Y008594D01*
X005483Y008585D01*
X005568Y008572D01*
X005652Y008556D01*
X005736Y008535D01*
X005818Y008511D01*
X005899Y008483D01*
X005979Y008451D01*
X006058Y008416D01*
X006134Y008377D01*
X006209Y008334D01*
X006282Y008288D01*
X006353Y008239D01*
X006421Y008187D01*
X006487Y008132D01*
X006550Y008073D01*
X006610Y008012D01*
X006668Y007948D01*
X006722Y007882D01*
X006774Y007813D01*
X006822Y007742D01*
X006867Y007669D01*
X006909Y007593D01*
X006947Y007516D01*
X006981Y007438D01*
X007012Y007357D01*
X007039Y007276D01*
X007063Y007193D01*
X007082Y007109D01*
X007098Y007025D01*
X007110Y006940D01*
X007118Y006854D01*
X007122Y006768D01*
X007122Y006682D01*
X007118Y006596D01*
X007110Y006510D01*
X007098Y006425D01*
X007082Y006341D01*
X007063Y006257D01*
X007039Y006174D01*
X007012Y006093D01*
X006981Y006012D01*
X006947Y005934D01*
X006909Y005857D01*
X006867Y005781D01*
X006822Y005708D01*
X006774Y005637D01*
X006722Y005568D01*
X006668Y005502D01*
X006610Y005438D01*
X006550Y005377D01*
X006487Y005318D01*
X006421Y005263D01*
X006353Y005211D01*
X006282Y005162D01*
X006209Y005116D01*
X006134Y005073D01*
X006058Y005034D01*
X005979Y004999D01*
X005899Y004967D01*
X005818Y004939D01*
X005736Y004915D01*
X005652Y004894D01*
X005568Y004878D01*
X005483Y004865D01*
X005397Y004856D01*
X005311Y004851D01*
X005226Y004850D01*
X005140Y004853D01*
X005054Y004860D01*
X004969Y004871D01*
X004884Y004886D01*
X004800Y004904D01*
X004717Y004927D01*
X004635Y004953D01*
X004554Y004983D01*
X004475Y005016D01*
X004398Y005053D01*
X004322Y005094D01*
X004248Y005138D01*
X004176Y005186D01*
X004107Y005236D01*
X004040Y005290D01*
X003975Y005347D01*
X003914Y005407D01*
X003855Y005469D01*
X003798Y005534D01*
X003745Y005602D01*
X003695Y005672D01*
X003649Y005744D01*
X003606Y005819D01*
X003566Y005895D01*
X003529Y005973D01*
X003497Y006052D01*
X003468Y006133D01*
X003443Y006216D01*
X003421Y006299D01*
X003403Y006383D01*
X003390Y006468D01*
X003380Y006553D01*
X003374Y006639D01*
X003372Y006725D01*
X009972Y009100D02*
X009972Y011825D01*
X027622Y011825D01*
X027622Y009100D01*
X009972Y009100D01*
X013997Y006725D02*
X013999Y006811D01*
X014005Y006897D01*
X014015Y006982D01*
X014028Y007067D01*
X014046Y007151D01*
X014068Y007234D01*
X014093Y007317D01*
X014122Y007398D01*
X014154Y007477D01*
X014191Y007555D01*
X014231Y007631D01*
X014274Y007706D01*
X014320Y007778D01*
X014370Y007848D01*
X014423Y007916D01*
X014480Y007981D01*
X014539Y008043D01*
X014600Y008103D01*
X014665Y008160D01*
X014732Y008214D01*
X014801Y008264D01*
X014873Y008312D01*
X014947Y008356D01*
X015023Y008397D01*
X015100Y008434D01*
X015179Y008467D01*
X015260Y008497D01*
X015342Y008523D01*
X015425Y008546D01*
X015509Y008564D01*
X015594Y008579D01*
X015679Y008590D01*
X015765Y008597D01*
X015851Y008600D01*
X015936Y008599D01*
X016022Y008594D01*
X016108Y008585D01*
X016193Y008572D01*
X016277Y008556D01*
X016361Y008535D01*
X016443Y008511D01*
X016524Y008483D01*
X016604Y008451D01*
X016683Y008416D01*
X016759Y008377D01*
X016834Y008334D01*
X016907Y008288D01*
X016978Y008239D01*
X017046Y008187D01*
X017112Y008132D01*
X017175Y008073D01*
X017235Y008012D01*
X017293Y007948D01*
X017347Y007882D01*
X017399Y007813D01*
X017447Y007742D01*
X017492Y007669D01*
X017534Y007593D01*
X017572Y007516D01*
X017606Y007438D01*
X017637Y007357D01*
X017664Y007276D01*
X017688Y007193D01*
X017707Y007109D01*
X017723Y007025D01*
X017735Y006940D01*
X017743Y006854D01*
X017747Y006768D01*
X017747Y006682D01*
X017743Y006596D01*
X017735Y006510D01*
X017723Y006425D01*
X017707Y006341D01*
X017688Y006257D01*
X017664Y006174D01*
X017637Y006093D01*
X017606Y006012D01*
X017572Y005934D01*
X017534Y005857D01*
X017492Y005781D01*
X017447Y005708D01*
X017399Y005637D01*
X017347Y005568D01*
X017293Y005502D01*
X017235Y005438D01*
X017175Y005377D01*
X017112Y005318D01*
X017046Y005263D01*
X016978Y005211D01*
X016907Y005162D01*
X016834Y005116D01*
X016759Y005073D01*
X016683Y005034D01*
X016604Y004999D01*
X016524Y004967D01*
X016443Y004939D01*
X016361Y004915D01*
X016277Y004894D01*
X016193Y004878D01*
X016108Y004865D01*
X016022Y004856D01*
X015936Y004851D01*
X015851Y004850D01*
X015765Y004853D01*
X015679Y004860D01*
X015594Y004871D01*
X015509Y004886D01*
X015425Y004904D01*
X015342Y004927D01*
X015260Y004953D01*
X015179Y004983D01*
X015100Y005016D01*
X015023Y005053D01*
X014947Y005094D01*
X014873Y005138D01*
X014801Y005186D01*
X014732Y005236D01*
X014665Y005290D01*
X014600Y005347D01*
X014539Y005407D01*
X014480Y005469D01*
X014423Y005534D01*
X014370Y005602D01*
X014320Y005672D01*
X014274Y005744D01*
X014231Y005819D01*
X014191Y005895D01*
X014154Y005973D01*
X014122Y006052D01*
X014093Y006133D01*
X014068Y006216D01*
X014046Y006299D01*
X014028Y006383D01*
X014015Y006468D01*
X014005Y006553D01*
X013999Y006639D01*
X013997Y006725D01*
X024622Y006725D02*
X024624Y006811D01*
X024630Y006897D01*
X024640Y006982D01*
X024653Y007067D01*
X024671Y007151D01*
X024693Y007234D01*
X024718Y007317D01*
X024747Y007398D01*
X024779Y007477D01*
X024816Y007555D01*
X024856Y007631D01*
X024899Y007706D01*
X024945Y007778D01*
X024995Y007848D01*
X025048Y007916D01*
X025105Y007981D01*
X025164Y008043D01*
X025225Y008103D01*
X025290Y008160D01*
X025357Y008214D01*
X025426Y008264D01*
X025498Y008312D01*
X025572Y008356D01*
X025648Y008397D01*
X025725Y008434D01*
X025804Y008467D01*
X025885Y008497D01*
X025967Y008523D01*
X026050Y008546D01*
X026134Y008564D01*
X026219Y008579D01*
X026304Y008590D01*
X026390Y008597D01*
X026476Y008600D01*
X026561Y008599D01*
X026647Y008594D01*
X026733Y008585D01*
X026818Y008572D01*
X026902Y008556D01*
X026986Y008535D01*
X027068Y008511D01*
X027149Y008483D01*
X027229Y008451D01*
X027308Y008416D01*
X027384Y008377D01*
X027459Y008334D01*
X027532Y008288D01*
X027603Y008239D01*
X027671Y008187D01*
X027737Y008132D01*
X027800Y008073D01*
X027860Y008012D01*
X027918Y007948D01*
X027972Y007882D01*
X028024Y007813D01*
X028072Y007742D01*
X028117Y007669D01*
X028159Y007593D01*
X028197Y007516D01*
X028231Y007438D01*
X028262Y007357D01*
X028289Y007276D01*
X028313Y007193D01*
X028332Y007109D01*
X028348Y007025D01*
X028360Y006940D01*
X028368Y006854D01*
X028372Y006768D01*
X028372Y006682D01*
X028368Y006596D01*
X028360Y006510D01*
X028348Y006425D01*
X028332Y006341D01*
X028313Y006257D01*
X028289Y006174D01*
X028262Y006093D01*
X028231Y006012D01*
X028197Y005934D01*
X028159Y005857D01*
X028117Y005781D01*
X028072Y005708D01*
X028024Y005637D01*
X027972Y005568D01*
X027918Y005502D01*
X027860Y005438D01*
X027800Y005377D01*
X027737Y005318D01*
X027671Y005263D01*
X027603Y005211D01*
X027532Y005162D01*
X027459Y005116D01*
X027384Y005073D01*
X027308Y005034D01*
X027229Y004999D01*
X027149Y004967D01*
X027068Y004939D01*
X026986Y004915D01*
X026902Y004894D01*
X026818Y004878D01*
X026733Y004865D01*
X026647Y004856D01*
X026561Y004851D01*
X026476Y004850D01*
X026390Y004853D01*
X026304Y004860D01*
X026219Y004871D01*
X026134Y004886D01*
X026050Y004904D01*
X025967Y004927D01*
X025885Y004953D01*
X025804Y004983D01*
X025725Y005016D01*
X025648Y005053D01*
X025572Y005094D01*
X025498Y005138D01*
X025426Y005186D01*
X025357Y005236D01*
X025290Y005290D01*
X025225Y005347D01*
X025164Y005407D01*
X025105Y005469D01*
X025048Y005534D01*
X024995Y005602D01*
X024945Y005672D01*
X024899Y005744D01*
X024856Y005819D01*
X024816Y005895D01*
X024779Y005973D01*
X024747Y006052D01*
X024718Y006133D01*
X024693Y006216D01*
X024671Y006299D01*
X024653Y006383D01*
X024640Y006468D01*
X024630Y006553D01*
X024624Y006639D01*
X024622Y006725D01*
D12*
X028098Y003717D02*
X028098Y003625D01*
X028098Y003442D02*
X028098Y003075D01*
X028190Y003075D02*
X028006Y003075D01*
X027821Y003167D02*
X027730Y003075D01*
X027454Y003075D01*
X027454Y002983D02*
X027454Y003442D01*
X027730Y003442D01*
X027821Y003350D01*
X027821Y003167D01*
X027638Y002892D02*
X027546Y002892D01*
X027454Y002983D01*
X027269Y003075D02*
X027269Y003442D01*
X026994Y003442D01*
X026902Y003350D01*
X026902Y003075D01*
X026716Y003167D02*
X026716Y003350D01*
X026625Y003442D01*
X026441Y003442D01*
X026349Y003350D01*
X026349Y003258D01*
X026716Y003258D01*
X026716Y003167D02*
X026625Y003075D01*
X026441Y003075D01*
X026164Y003167D02*
X026164Y003350D01*
X026072Y003442D01*
X025797Y003442D01*
X025797Y003625D02*
X025797Y003075D01*
X026072Y003075D01*
X026164Y003167D01*
X025797Y002625D02*
X025797Y002075D01*
X026072Y002075D01*
X026164Y002167D01*
X026164Y002350D01*
X026072Y002442D01*
X025797Y002442D01*
X026349Y002350D02*
X026349Y002258D01*
X026716Y002258D01*
X026716Y002167D02*
X026716Y002350D01*
X026625Y002442D01*
X026441Y002442D01*
X026349Y002350D01*
X026902Y002442D02*
X027177Y002442D01*
X027269Y002350D01*
X027177Y002258D01*
X026994Y002258D01*
X026902Y002167D01*
X026994Y002075D01*
X027269Y002075D01*
X027454Y002075D02*
X027454Y002350D01*
X027546Y002442D01*
X027821Y002442D01*
X027821Y002075D01*
X028099Y002075D02*
X028282Y002075D01*
X028374Y002167D01*
X028374Y002350D01*
X028282Y002442D01*
X028099Y002442D01*
X028007Y002350D01*
X028007Y002258D01*
X028374Y002258D01*
X028559Y002442D02*
X028835Y002442D01*
X028926Y002350D01*
X028926Y002167D01*
X028835Y002075D01*
X028559Y002075D01*
X029111Y002075D02*
X029295Y002075D01*
X029203Y002075D02*
X029203Y002442D01*
X029295Y002442D01*
X029203Y002625D02*
X029203Y002717D01*
X029203Y003075D02*
X029295Y003167D01*
X029295Y003350D01*
X029203Y003442D01*
X029019Y003442D01*
X028928Y003350D01*
X028928Y003258D01*
X029295Y003258D01*
X029480Y003167D02*
X029480Y003534D01*
X029572Y003625D01*
X029847Y003625D01*
X029847Y003075D01*
X029572Y003075D01*
X029480Y003167D01*
X029203Y003075D02*
X029019Y003075D01*
X028742Y003075D02*
X028467Y003075D01*
X028375Y003167D01*
X028467Y003258D01*
X028650Y003258D01*
X028742Y003350D01*
X028650Y003442D01*
X028375Y003442D01*
X028190Y003442D02*
X028098Y003442D01*
X029847Y002625D02*
X029847Y002075D01*
X029480Y002075D01*
X029847Y001625D02*
X029847Y001075D01*
X029847Y001350D02*
X029755Y001442D01*
X029572Y001442D01*
X029480Y001350D01*
X029480Y001075D01*
X029203Y001167D02*
X029111Y001075D01*
X029203Y001167D02*
X029203Y001534D01*
X029295Y001442D02*
X029111Y001442D01*
X028926Y001442D02*
X028743Y001442D01*
X028835Y001534D02*
X028835Y001167D01*
X028743Y001075D01*
X028558Y001075D02*
X028283Y001075D01*
X028191Y001167D01*
X028191Y001350D01*
X028283Y001442D01*
X028558Y001442D01*
X028558Y000892D01*
X028005Y001075D02*
X027914Y001075D01*
X027914Y001167D01*
X028005Y001167D01*
X028005Y001075D01*
X027729Y001075D02*
X027362Y001625D01*
X027914Y001442D02*
X027914Y001350D01*
X028005Y001350D01*
X028005Y001442D01*
X027914Y001442D01*
X027177Y001075D02*
X026810Y001625D01*
X026624Y001625D02*
X026624Y001075D01*
X026257Y001075D02*
X026257Y001350D01*
X026349Y001442D01*
X026533Y001442D01*
X026624Y001350D01*
X026072Y001167D02*
X025980Y001075D01*
X025705Y001075D01*
X025705Y001350D01*
X025797Y001442D01*
X025980Y001442D01*
X025519Y001350D02*
X025519Y001167D01*
X025428Y001075D01*
X025152Y001075D01*
X024967Y001075D02*
X024967Y001625D01*
X025152Y001442D02*
X025428Y001442D01*
X025519Y001350D01*
X025705Y001258D02*
X025980Y001258D01*
X026072Y001167D01*
X024967Y001258D02*
X024692Y001442D01*
X024506Y001350D02*
X024415Y001442D01*
X024140Y001442D01*
X023954Y001442D02*
X023771Y001442D01*
X023862Y001534D02*
X023862Y001167D01*
X023771Y001075D01*
X023586Y001075D02*
X023586Y001442D01*
X023586Y001258D02*
X023402Y001442D01*
X023310Y001442D01*
X023125Y001442D02*
X023034Y001442D01*
X023034Y001075D01*
X023125Y001075D02*
X022942Y001075D01*
X022757Y001167D02*
X022665Y001075D01*
X022390Y001075D01*
X022205Y001075D02*
X022205Y001625D01*
X022113Y001442D02*
X021929Y001442D01*
X021838Y001350D01*
X021838Y001075D01*
X021652Y001075D02*
X021560Y001075D01*
X021560Y001167D01*
X021652Y001167D01*
X021652Y001075D01*
X021376Y001075D02*
X021101Y001075D01*
X021009Y001167D01*
X021101Y001258D01*
X021284Y001258D01*
X021376Y001350D01*
X021284Y001442D01*
X021009Y001442D01*
X020823Y001350D02*
X020732Y001442D01*
X020548Y001442D01*
X020456Y001350D01*
X020456Y001258D01*
X020823Y001258D01*
X020823Y001167D02*
X020823Y001350D01*
X020823Y001167D02*
X020732Y001075D01*
X020548Y001075D01*
X020271Y001075D02*
X020271Y001442D01*
X019996Y001442D01*
X019904Y001350D01*
X019904Y001075D01*
X019718Y001075D02*
X019627Y001075D01*
X019627Y001167D01*
X019718Y001167D01*
X019718Y001075D01*
X019442Y001167D02*
X019350Y001075D01*
X019075Y001075D01*
X018890Y001075D02*
X018523Y001442D01*
X018890Y001442D02*
X018523Y001075D01*
X018337Y001075D02*
X017970Y001625D01*
X017785Y001534D02*
X017785Y001167D01*
X017693Y001075D01*
X017510Y001075D01*
X017418Y001167D01*
X017232Y001167D02*
X017141Y001075D01*
X016957Y001075D01*
X016865Y001167D01*
X016865Y001350D01*
X016957Y001442D01*
X017141Y001442D01*
X017232Y001350D01*
X017232Y001167D01*
X016680Y001075D02*
X016680Y001442D01*
X016405Y001442D01*
X016313Y001350D01*
X016313Y001075D01*
X016036Y001167D02*
X015944Y001075D01*
X016036Y001167D02*
X016036Y001534D01*
X016127Y001442D02*
X015944Y001442D01*
X015759Y001442D02*
X015667Y001442D01*
X015667Y001075D01*
X015576Y001075D02*
X015759Y001075D01*
X015391Y001075D02*
X015391Y001442D01*
X015115Y001442D01*
X015024Y001350D01*
X015024Y001075D01*
X014838Y001167D02*
X014746Y001075D01*
X014471Y001075D01*
X014471Y001442D01*
X014286Y001442D02*
X014194Y001442D01*
X014194Y001075D01*
X014286Y001075D02*
X014102Y001075D01*
X013826Y001167D02*
X013734Y001075D01*
X013826Y001167D02*
X013826Y001534D01*
X013917Y001442D02*
X013734Y001442D01*
X013549Y001442D02*
X013549Y001167D01*
X013457Y001075D01*
X013182Y001075D01*
X013182Y000983D02*
X013274Y000892D01*
X013366Y000892D01*
X013182Y000983D02*
X013182Y001442D01*
X012444Y001625D02*
X012077Y001625D01*
X012261Y001625D02*
X012261Y001075D01*
X012630Y000983D02*
X012997Y000983D01*
X011892Y001167D02*
X011892Y001350D01*
X011800Y001442D01*
X011616Y001442D01*
X011525Y001350D01*
X011525Y001258D01*
X011892Y001258D01*
X011892Y001167D02*
X011800Y001075D01*
X011616Y001075D01*
X011339Y001075D02*
X011064Y001075D01*
X010972Y001167D01*
X011064Y001258D01*
X011248Y001258D01*
X011339Y001350D01*
X011248Y001442D01*
X010972Y001442D01*
X010787Y001442D02*
X010603Y001442D01*
X010695Y001534D02*
X010695Y001167D01*
X010603Y001075D01*
X010418Y001167D02*
X010418Y001350D01*
X010327Y001442D01*
X010143Y001442D01*
X010051Y001350D01*
X010051Y001258D01*
X010418Y001258D01*
X010418Y001167D02*
X010327Y001075D01*
X010143Y001075D01*
X009866Y001075D02*
X009866Y001442D01*
X009683Y001442D02*
X009591Y001442D01*
X009683Y001442D02*
X009866Y001258D01*
X010328Y002075D02*
X010328Y002442D01*
X010511Y002625D01*
X010695Y002442D01*
X010695Y002075D01*
X010880Y002167D02*
X010972Y002075D01*
X011155Y002075D01*
X011247Y002167D01*
X010972Y002350D02*
X010880Y002258D01*
X010880Y002167D01*
X010972Y002350D02*
X011155Y002350D01*
X011247Y002442D01*
X011247Y002534D01*
X011155Y002625D01*
X010972Y002625D01*
X010880Y002534D01*
X010695Y002350D02*
X010328Y002350D01*
X011433Y002350D02*
X011800Y002350D01*
X011985Y002534D02*
X011985Y002625D01*
X011985Y002534D02*
X012169Y002350D01*
X012169Y002075D01*
X012538Y002167D02*
X012629Y002075D01*
X012905Y002075D01*
X012905Y002625D01*
X012629Y002625D01*
X012538Y002534D01*
X012538Y002442D01*
X012629Y002350D01*
X012905Y002350D01*
X012629Y002350D02*
X012538Y002258D01*
X012538Y002167D01*
X012352Y002534D02*
X012169Y002350D01*
X012352Y002534D02*
X012352Y002625D01*
X013643Y002442D02*
X013918Y002442D01*
X014010Y002350D01*
X013918Y002258D01*
X013734Y002258D01*
X013643Y002167D01*
X013734Y002075D01*
X014010Y002075D01*
X014195Y002075D02*
X014195Y002350D01*
X014287Y002442D01*
X014562Y002442D01*
X014562Y002075D01*
X014747Y002167D02*
X014747Y002350D01*
X014839Y002442D01*
X015023Y002442D01*
X015114Y002350D01*
X015114Y002167D01*
X015023Y002075D01*
X014839Y002075D01*
X014747Y002167D01*
X015300Y002075D02*
X015300Y002350D01*
X015392Y002442D01*
X015483Y002350D01*
X015483Y002075D01*
X015667Y002075D02*
X015667Y002442D01*
X015575Y002442D01*
X015483Y002350D01*
X015852Y002350D02*
X015852Y002075D01*
X016036Y002075D02*
X016036Y002350D01*
X015944Y002442D01*
X015852Y002350D01*
X016036Y002350D02*
X016128Y002442D01*
X016219Y002442D01*
X016219Y002075D01*
X016405Y002167D02*
X016497Y002075D01*
X016680Y002075D01*
X016772Y002167D01*
X016772Y002350D01*
X016680Y002442D01*
X016497Y002442D01*
X016405Y002350D01*
X016405Y002167D01*
X016957Y002167D02*
X017049Y002075D01*
X017233Y002075D01*
X017324Y002167D01*
X017324Y002534D01*
X017233Y002625D01*
X017049Y002625D01*
X016957Y002534D01*
X018062Y002350D02*
X018062Y002258D01*
X018429Y002258D01*
X018429Y002167D02*
X018429Y002350D01*
X018338Y002442D01*
X018154Y002442D01*
X018062Y002350D01*
X018338Y002075D02*
X018429Y002167D01*
X018338Y002075D02*
X018154Y002075D01*
X018615Y002442D02*
X018798Y002075D01*
X018982Y002442D01*
X019258Y002442D02*
X019258Y002075D01*
X019167Y002075D02*
X019350Y002075D01*
X019535Y002075D02*
X019627Y002167D01*
X019627Y002534D01*
X019718Y002442D02*
X019535Y002442D01*
X019350Y002442D02*
X019258Y002442D01*
X019258Y002625D02*
X019258Y002717D01*
X019904Y002350D02*
X019904Y002075D01*
X020179Y002075D01*
X020271Y002167D01*
X020179Y002258D01*
X019904Y002258D01*
X019904Y002350D02*
X019996Y002442D01*
X020179Y002442D01*
X020456Y002350D02*
X020456Y002258D01*
X020823Y002258D01*
X020823Y002167D02*
X020823Y002350D01*
X020732Y002442D01*
X020548Y002442D01*
X020456Y002350D01*
X020732Y002075D02*
X020823Y002167D01*
X020732Y002075D02*
X020548Y002075D01*
X021009Y002442D02*
X021100Y002442D01*
X021284Y002258D01*
X021284Y002075D02*
X021284Y002442D01*
X021469Y002534D02*
X021561Y002625D01*
X021744Y002625D01*
X021836Y002534D01*
X021836Y002167D01*
X021744Y002075D01*
X021561Y002075D01*
X021469Y002167D01*
X022574Y002442D02*
X022666Y002442D01*
X022849Y002258D01*
X022849Y002075D02*
X022849Y002442D01*
X023035Y002350D02*
X023035Y002258D01*
X023402Y002258D01*
X023402Y002167D02*
X023402Y002350D01*
X023310Y002442D01*
X023126Y002442D01*
X023035Y002350D01*
X023310Y002075D02*
X023402Y002167D01*
X023310Y002075D02*
X023126Y002075D01*
X023034Y001717D02*
X023034Y001625D01*
X022757Y001350D02*
X022665Y001442D01*
X022390Y001442D01*
X022205Y001350D02*
X022113Y001442D01*
X022757Y001350D02*
X022757Y001167D01*
X024140Y001167D02*
X024231Y001258D01*
X024415Y001258D01*
X024506Y001350D01*
X024692Y001075D02*
X024967Y001258D01*
X024506Y001075D02*
X024231Y001075D01*
X024140Y001167D01*
X024140Y002075D02*
X024140Y002350D01*
X024231Y002442D01*
X024506Y002442D01*
X024506Y002075D01*
X024692Y002075D02*
X024692Y002442D01*
X025059Y002442D02*
X025059Y002167D01*
X024967Y002075D01*
X024692Y002075D01*
X023954Y002167D02*
X023862Y002075D01*
X023587Y002075D01*
X023587Y002625D01*
X023587Y002442D02*
X023862Y002442D01*
X023954Y002350D01*
X023954Y002167D01*
X024231Y002892D02*
X024323Y002892D01*
X024231Y002892D02*
X024140Y002983D01*
X024140Y003442D01*
X024506Y003442D02*
X024506Y003167D01*
X024415Y003075D01*
X024140Y003075D01*
X024692Y003167D02*
X024692Y003350D01*
X024784Y003442D01*
X025059Y003442D01*
X025059Y003625D02*
X025059Y003075D01*
X024784Y003075D01*
X024692Y003167D01*
X023402Y003075D02*
X023126Y003075D01*
X023035Y003167D01*
X023126Y003258D01*
X023310Y003258D01*
X023402Y003350D01*
X023310Y003442D01*
X023035Y003442D01*
X022849Y003350D02*
X022757Y003442D01*
X022574Y003442D01*
X022482Y003350D01*
X022482Y003258D01*
X022849Y003258D01*
X022849Y003167D02*
X022849Y003350D01*
X022849Y003167D02*
X022757Y003075D01*
X022574Y003075D01*
X022297Y003075D02*
X022297Y003442D01*
X022021Y003442D01*
X021930Y003350D01*
X021930Y003075D01*
X021192Y003075D02*
X021008Y003075D01*
X021100Y003075D02*
X021100Y003442D01*
X021192Y003442D01*
X021100Y003625D02*
X021100Y003717D01*
X020823Y003442D02*
X020548Y003442D01*
X020456Y003350D01*
X020456Y003075D01*
X020823Y003075D02*
X020823Y003442D01*
X019718Y003534D02*
X019627Y003625D01*
X019443Y003625D01*
X019351Y003534D01*
X019351Y003442D01*
X019718Y003075D01*
X019351Y003075D01*
X019166Y003167D02*
X019074Y003075D01*
X018891Y003075D01*
X018799Y003167D01*
X018799Y003534D01*
X019166Y003167D01*
X019166Y003534D01*
X019074Y003625D01*
X018891Y003625D01*
X018799Y003534D01*
X018613Y003442D02*
X018430Y003625D01*
X018430Y003075D01*
X018613Y003075D02*
X018246Y003075D01*
X018061Y003167D02*
X018061Y003258D01*
X017969Y003350D01*
X017786Y003350D01*
X017694Y003258D01*
X017694Y003167D01*
X017786Y003075D01*
X017969Y003075D01*
X018061Y003167D01*
X017969Y003350D02*
X018061Y003442D01*
X018061Y003534D01*
X017969Y003625D01*
X017786Y003625D01*
X017694Y003534D01*
X017694Y003442D01*
X017786Y003350D01*
X015667Y001717D02*
X015667Y001625D01*
X014838Y001442D02*
X014838Y001167D01*
X014194Y001625D02*
X014194Y001717D01*
X017418Y001534D02*
X017510Y001625D01*
X017693Y001625D01*
X017785Y001534D01*
X019075Y001442D02*
X019350Y001442D01*
X019442Y001350D01*
X019442Y001167D01*
X026441Y002075D02*
X026625Y002075D01*
X026716Y002167D01*
X008049Y004092D02*
X007958Y004000D01*
X007774Y004000D01*
X007682Y004092D01*
X007682Y004183D01*
X007774Y004275D01*
X007958Y004275D01*
X008049Y004367D01*
X008049Y004459D01*
X007958Y004550D01*
X007774Y004550D01*
X007682Y004459D01*
X007497Y004275D02*
X007405Y004367D01*
X007222Y004367D01*
X007130Y004275D01*
X007130Y004183D01*
X007497Y004183D01*
X007497Y004092D02*
X007497Y004275D01*
X007497Y004092D02*
X007405Y004000D01*
X007222Y004000D01*
X006944Y004000D02*
X006944Y004367D01*
X006761Y004367D02*
X006669Y004367D01*
X006761Y004367D02*
X006944Y004183D01*
X006484Y004367D02*
X006392Y004367D01*
X006392Y004000D01*
X006484Y004000D02*
X006300Y004000D01*
X006116Y004092D02*
X006024Y004183D01*
X005749Y004183D01*
X005749Y004275D02*
X005749Y004000D01*
X006024Y004000D01*
X006116Y004092D01*
X005840Y004367D02*
X005749Y004275D01*
X005840Y004367D02*
X006024Y004367D01*
X006392Y004550D02*
X006392Y004642D01*
X005563Y004550D02*
X005471Y004550D01*
X005471Y004000D01*
X005380Y004000D02*
X005563Y004000D01*
X003058Y001246D02*
X002026Y002278D01*
X001997Y002307D01*
X001775Y001999D01*
X002749Y001024D01*
X003058Y001246D01*
X028665Y011600D02*
X028973Y011822D01*
X029948Y010848D01*
X029726Y010539D01*
X029696Y010569D01*
X028665Y011600D01*
D13*
X026958Y010881D02*
X026958Y010020D01*
X026384Y010020D01*
X026037Y010163D02*
X025894Y010020D01*
X025607Y010020D01*
X025464Y010163D01*
X025117Y010163D02*
X024973Y010020D01*
X024686Y010020D01*
X024543Y010163D01*
X024543Y010737D01*
X024686Y010881D01*
X024973Y010881D01*
X025117Y010737D01*
X025117Y010163D01*
X026037Y010163D02*
X026037Y010737D01*
X025894Y010881D01*
X025607Y010881D01*
X025464Y010737D01*
X026384Y010881D02*
X026958Y010881D01*
X026958Y010450D02*
X026671Y010450D01*
D14*
X023332Y010425D02*
X022718Y010425D01*
X022718Y010579D02*
X022718Y009965D01*
X023332Y009965D02*
X023332Y010579D01*
X023025Y010886D01*
X022718Y010579D01*
X018307Y010425D02*
X017847Y010425D01*
X017693Y010272D01*
X017693Y010118D01*
X017847Y009965D01*
X018307Y009965D01*
X018307Y010886D01*
X017847Y010886D01*
X017693Y010732D01*
X017693Y010579D01*
X017847Y010425D01*
X013557Y010118D02*
X013404Y009965D01*
X013097Y009965D01*
X012943Y010118D01*
X013557Y010118D02*
X013557Y010732D01*
X013404Y010886D01*
X013097Y010886D01*
X012943Y010732D01*
D15*
X011347Y010475D03*
X016097Y010475D03*
X021097Y010475D03*
D16*
X006622Y002263D03*
D17*
G36*
X002262Y001688D02*
X002438Y001512D01*
X002350Y001424D01*
X002174Y001600D01*
X002262Y001688D01*
G37*
G36*
X029460Y011159D02*
X029284Y011335D01*
X029372Y011423D01*
X029548Y011247D01*
X029460Y011159D01*
G37*
M02*
