%
M48
M72
T01C0.0236
T02C0.0315
T03C0.0630
%
T01
X3496Y1099
X2635Y2863
X11672Y3850
X12447Y5975
X22247Y2725
X22122Y1725
X28702Y9529
X28123Y9904
T02
X9470Y8998
X8447Y9608
X7659Y9608
X6872Y9608
X5297Y9608
X5297Y10592
X4274Y11202
X6872Y10592
X7659Y10592
X8447Y10592
T03
X8747Y6975
X10747Y6975
X10747Y4975
X8747Y4975
X20997Y4975
X22997Y4975
X22997Y6975
X20997Y6975
M30
