G75*
%MOIN*%
%OFA0B0*%
%FSLAX24Y24*%
%IPPOS*%
%LPD*%
%AMOC8*
5,1,8,0,0,1.08239X$1,22.5*
%
%ADD10C,0.0000*%
D10*
X001747Y001219D02*
X034497Y001219D01*
X034541Y001221D01*
X034584Y001227D01*
X034626Y001236D01*
X034668Y001249D01*
X034708Y001266D01*
X034747Y001286D01*
X034784Y001309D01*
X034818Y001336D01*
X034851Y001365D01*
X034880Y001398D01*
X034907Y001432D01*
X034930Y001469D01*
X034950Y001508D01*
X034967Y001548D01*
X034980Y001590D01*
X034989Y001632D01*
X034995Y001675D01*
X034997Y001719D01*
X034997Y013219D01*
X034995Y013263D01*
X034989Y013306D01*
X034980Y013348D01*
X034967Y013390D01*
X034950Y013430D01*
X034930Y013469D01*
X034907Y013506D01*
X034880Y013540D01*
X034851Y013573D01*
X034818Y013602D01*
X034784Y013629D01*
X034747Y013652D01*
X034708Y013672D01*
X034668Y013689D01*
X034626Y013702D01*
X034584Y013711D01*
X034541Y013717D01*
X034497Y013719D01*
X001747Y013719D01*
X001703Y013717D01*
X001660Y013711D01*
X001618Y013702D01*
X001576Y013689D01*
X001536Y013672D01*
X001497Y013652D01*
X001460Y013629D01*
X001426Y013602D01*
X001393Y013573D01*
X001364Y013540D01*
X001337Y013506D01*
X001314Y013469D01*
X001294Y013430D01*
X001277Y013390D01*
X001264Y013348D01*
X001255Y013306D01*
X001249Y013263D01*
X001247Y013219D01*
X001247Y001719D01*
X001249Y001675D01*
X001255Y001632D01*
X001264Y001590D01*
X001277Y001548D01*
X001294Y001508D01*
X001314Y001469D01*
X001337Y001432D01*
X001364Y001398D01*
X001393Y001365D01*
X001426Y001336D01*
X001460Y001309D01*
X001497Y001286D01*
X001536Y001266D01*
X001576Y001249D01*
X001618Y001236D01*
X001660Y001227D01*
X001703Y001221D01*
X001747Y001219D01*
M02*
