G75*
%MOIN*%
%OFA0B0*%
%FSLAX24Y24*%
%IPPOS*%
%LPD*%
%AMOC8*
5,1,8,0,0,1.08239X$1,22.5*
%
%ADD10C,0.0000*%
%ADD11C,0.0160*%
%ADD12C,0.0060*%
%ADD13C,0.0140*%
%ADD14C,0.0080*%
%ADD15R,0.2500X0.2500*%
%ADD16R,0.6500X0.3250*%
%ADD17C,0.0070*%
%ADD18C,0.0050*%
%ADD19R,0.0250X0.0125*%
D10*
X001747Y001219D02*
X034497Y001219D01*
X034541Y001221D01*
X034584Y001227D01*
X034626Y001236D01*
X034668Y001249D01*
X034708Y001266D01*
X034747Y001286D01*
X034784Y001309D01*
X034818Y001336D01*
X034851Y001365D01*
X034880Y001398D01*
X034907Y001432D01*
X034930Y001469D01*
X034950Y001508D01*
X034967Y001548D01*
X034980Y001590D01*
X034989Y001632D01*
X034995Y001675D01*
X034997Y001719D01*
X034997Y013219D01*
X034995Y013263D01*
X034989Y013306D01*
X034980Y013348D01*
X034967Y013390D01*
X034950Y013430D01*
X034930Y013469D01*
X034907Y013506D01*
X034880Y013540D01*
X034851Y013573D01*
X034818Y013602D01*
X034784Y013629D01*
X034747Y013652D01*
X034708Y013672D01*
X034668Y013689D01*
X034626Y013702D01*
X034584Y013711D01*
X034541Y013717D01*
X034497Y013719D01*
X001747Y013719D01*
X001703Y013717D01*
X001660Y013711D01*
X001618Y013702D01*
X001576Y013689D01*
X001536Y013672D01*
X001497Y013652D01*
X001460Y013629D01*
X001426Y013602D01*
X001393Y013573D01*
X001364Y013540D01*
X001337Y013506D01*
X001314Y013469D01*
X001294Y013430D01*
X001277Y013390D01*
X001264Y013348D01*
X001255Y013306D01*
X001249Y013263D01*
X001247Y013219D01*
X001247Y001719D01*
X001249Y001675D01*
X001255Y001632D01*
X001264Y001590D01*
X001277Y001548D01*
X001294Y001508D01*
X001314Y001469D01*
X001337Y001432D01*
X001364Y001398D01*
X001393Y001365D01*
X001426Y001336D01*
X001460Y001309D01*
X001497Y001286D01*
X001536Y001266D01*
X001576Y001249D01*
X001618Y001236D01*
X001660Y001227D01*
X001703Y001221D01*
X001747Y001219D01*
D11*
X003372Y007469D02*
X003374Y007555D01*
X003380Y007641D01*
X003390Y007726D01*
X003403Y007811D01*
X003421Y007895D01*
X003443Y007978D01*
X003468Y008061D01*
X003497Y008142D01*
X003529Y008221D01*
X003566Y008299D01*
X003606Y008375D01*
X003649Y008450D01*
X003695Y008522D01*
X003745Y008592D01*
X003798Y008660D01*
X003855Y008725D01*
X003914Y008787D01*
X003975Y008847D01*
X004040Y008904D01*
X004107Y008958D01*
X004176Y009008D01*
X004248Y009056D01*
X004322Y009100D01*
X004398Y009141D01*
X004475Y009178D01*
X004554Y009211D01*
X004635Y009241D01*
X004717Y009267D01*
X004800Y009290D01*
X004884Y009308D01*
X004969Y009323D01*
X005054Y009334D01*
X005140Y009341D01*
X005226Y009344D01*
X005311Y009343D01*
X005397Y009338D01*
X005483Y009329D01*
X005568Y009316D01*
X005652Y009300D01*
X005736Y009279D01*
X005818Y009255D01*
X005899Y009227D01*
X005979Y009195D01*
X006058Y009160D01*
X006134Y009121D01*
X006209Y009078D01*
X006282Y009032D01*
X006353Y008983D01*
X006421Y008931D01*
X006487Y008876D01*
X006550Y008817D01*
X006610Y008756D01*
X006668Y008692D01*
X006722Y008626D01*
X006774Y008557D01*
X006822Y008486D01*
X006867Y008413D01*
X006909Y008337D01*
X006947Y008260D01*
X006981Y008182D01*
X007012Y008101D01*
X007039Y008020D01*
X007063Y007937D01*
X007082Y007853D01*
X007098Y007769D01*
X007110Y007684D01*
X007118Y007598D01*
X007122Y007512D01*
X007122Y007426D01*
X007118Y007340D01*
X007110Y007254D01*
X007098Y007169D01*
X007082Y007085D01*
X007063Y007001D01*
X007039Y006918D01*
X007012Y006837D01*
X006981Y006756D01*
X006947Y006678D01*
X006909Y006601D01*
X006867Y006525D01*
X006822Y006452D01*
X006774Y006381D01*
X006722Y006312D01*
X006668Y006246D01*
X006610Y006182D01*
X006550Y006121D01*
X006487Y006062D01*
X006421Y006007D01*
X006353Y005955D01*
X006282Y005906D01*
X006209Y005860D01*
X006134Y005817D01*
X006058Y005778D01*
X005979Y005743D01*
X005899Y005711D01*
X005818Y005683D01*
X005736Y005659D01*
X005652Y005638D01*
X005568Y005622D01*
X005483Y005609D01*
X005397Y005600D01*
X005311Y005595D01*
X005226Y005594D01*
X005140Y005597D01*
X005054Y005604D01*
X004969Y005615D01*
X004884Y005630D01*
X004800Y005648D01*
X004717Y005671D01*
X004635Y005697D01*
X004554Y005727D01*
X004475Y005760D01*
X004398Y005797D01*
X004322Y005838D01*
X004248Y005882D01*
X004176Y005930D01*
X004107Y005980D01*
X004040Y006034D01*
X003975Y006091D01*
X003914Y006151D01*
X003855Y006213D01*
X003798Y006278D01*
X003745Y006346D01*
X003695Y006416D01*
X003649Y006488D01*
X003606Y006563D01*
X003566Y006639D01*
X003529Y006717D01*
X003497Y006796D01*
X003468Y006877D01*
X003443Y006960D01*
X003421Y007043D01*
X003403Y007127D01*
X003390Y007212D01*
X003380Y007297D01*
X003374Y007383D01*
X003372Y007469D01*
X014497Y009919D02*
X014497Y013269D01*
X032147Y013269D01*
X032147Y009919D01*
X014497Y009919D01*
X016247Y007469D02*
X016249Y007555D01*
X016255Y007641D01*
X016265Y007726D01*
X016278Y007811D01*
X016296Y007895D01*
X016318Y007978D01*
X016343Y008061D01*
X016372Y008142D01*
X016404Y008221D01*
X016441Y008299D01*
X016481Y008375D01*
X016524Y008450D01*
X016570Y008522D01*
X016620Y008592D01*
X016673Y008660D01*
X016730Y008725D01*
X016789Y008787D01*
X016850Y008847D01*
X016915Y008904D01*
X016982Y008958D01*
X017051Y009008D01*
X017123Y009056D01*
X017197Y009100D01*
X017273Y009141D01*
X017350Y009178D01*
X017429Y009211D01*
X017510Y009241D01*
X017592Y009267D01*
X017675Y009290D01*
X017759Y009308D01*
X017844Y009323D01*
X017929Y009334D01*
X018015Y009341D01*
X018101Y009344D01*
X018186Y009343D01*
X018272Y009338D01*
X018358Y009329D01*
X018443Y009316D01*
X018527Y009300D01*
X018611Y009279D01*
X018693Y009255D01*
X018774Y009227D01*
X018854Y009195D01*
X018933Y009160D01*
X019009Y009121D01*
X019084Y009078D01*
X019157Y009032D01*
X019228Y008983D01*
X019296Y008931D01*
X019362Y008876D01*
X019425Y008817D01*
X019485Y008756D01*
X019543Y008692D01*
X019597Y008626D01*
X019649Y008557D01*
X019697Y008486D01*
X019742Y008413D01*
X019784Y008337D01*
X019822Y008260D01*
X019856Y008182D01*
X019887Y008101D01*
X019914Y008020D01*
X019938Y007937D01*
X019957Y007853D01*
X019973Y007769D01*
X019985Y007684D01*
X019993Y007598D01*
X019997Y007512D01*
X019997Y007426D01*
X019993Y007340D01*
X019985Y007254D01*
X019973Y007169D01*
X019957Y007085D01*
X019938Y007001D01*
X019914Y006918D01*
X019887Y006837D01*
X019856Y006756D01*
X019822Y006678D01*
X019784Y006601D01*
X019742Y006525D01*
X019697Y006452D01*
X019649Y006381D01*
X019597Y006312D01*
X019543Y006246D01*
X019485Y006182D01*
X019425Y006121D01*
X019362Y006062D01*
X019296Y006007D01*
X019228Y005955D01*
X019157Y005906D01*
X019084Y005860D01*
X019009Y005817D01*
X018933Y005778D01*
X018854Y005743D01*
X018774Y005711D01*
X018693Y005683D01*
X018611Y005659D01*
X018527Y005638D01*
X018443Y005622D01*
X018358Y005609D01*
X018272Y005600D01*
X018186Y005595D01*
X018101Y005594D01*
X018015Y005597D01*
X017929Y005604D01*
X017844Y005615D01*
X017759Y005630D01*
X017675Y005648D01*
X017592Y005671D01*
X017510Y005697D01*
X017429Y005727D01*
X017350Y005760D01*
X017273Y005797D01*
X017197Y005838D01*
X017123Y005882D01*
X017051Y005930D01*
X016982Y005980D01*
X016915Y006034D01*
X016850Y006091D01*
X016789Y006151D01*
X016730Y006213D01*
X016673Y006278D01*
X016620Y006346D01*
X016570Y006416D01*
X016524Y006488D01*
X016481Y006563D01*
X016441Y006639D01*
X016404Y006717D01*
X016372Y006796D01*
X016343Y006877D01*
X016318Y006960D01*
X016296Y007043D01*
X016278Y007127D01*
X016265Y007212D01*
X016255Y007297D01*
X016249Y007383D01*
X016247Y007469D01*
X029122Y007469D02*
X029124Y007555D01*
X029130Y007641D01*
X029140Y007726D01*
X029153Y007811D01*
X029171Y007895D01*
X029193Y007978D01*
X029218Y008061D01*
X029247Y008142D01*
X029279Y008221D01*
X029316Y008299D01*
X029356Y008375D01*
X029399Y008450D01*
X029445Y008522D01*
X029495Y008592D01*
X029548Y008660D01*
X029605Y008725D01*
X029664Y008787D01*
X029725Y008847D01*
X029790Y008904D01*
X029857Y008958D01*
X029926Y009008D01*
X029998Y009056D01*
X030072Y009100D01*
X030148Y009141D01*
X030225Y009178D01*
X030304Y009211D01*
X030385Y009241D01*
X030467Y009267D01*
X030550Y009290D01*
X030634Y009308D01*
X030719Y009323D01*
X030804Y009334D01*
X030890Y009341D01*
X030976Y009344D01*
X031061Y009343D01*
X031147Y009338D01*
X031233Y009329D01*
X031318Y009316D01*
X031402Y009300D01*
X031486Y009279D01*
X031568Y009255D01*
X031649Y009227D01*
X031729Y009195D01*
X031808Y009160D01*
X031884Y009121D01*
X031959Y009078D01*
X032032Y009032D01*
X032103Y008983D01*
X032171Y008931D01*
X032237Y008876D01*
X032300Y008817D01*
X032360Y008756D01*
X032418Y008692D01*
X032472Y008626D01*
X032524Y008557D01*
X032572Y008486D01*
X032617Y008413D01*
X032659Y008337D01*
X032697Y008260D01*
X032731Y008182D01*
X032762Y008101D01*
X032789Y008020D01*
X032813Y007937D01*
X032832Y007853D01*
X032848Y007769D01*
X032860Y007684D01*
X032868Y007598D01*
X032872Y007512D01*
X032872Y007426D01*
X032868Y007340D01*
X032860Y007254D01*
X032848Y007169D01*
X032832Y007085D01*
X032813Y007001D01*
X032789Y006918D01*
X032762Y006837D01*
X032731Y006756D01*
X032697Y006678D01*
X032659Y006601D01*
X032617Y006525D01*
X032572Y006452D01*
X032524Y006381D01*
X032472Y006312D01*
X032418Y006246D01*
X032360Y006182D01*
X032300Y006121D01*
X032237Y006062D01*
X032171Y006007D01*
X032103Y005955D01*
X032032Y005906D01*
X031959Y005860D01*
X031884Y005817D01*
X031808Y005778D01*
X031729Y005743D01*
X031649Y005711D01*
X031568Y005683D01*
X031486Y005659D01*
X031402Y005638D01*
X031318Y005622D01*
X031233Y005609D01*
X031147Y005600D01*
X031061Y005595D01*
X030976Y005594D01*
X030890Y005597D01*
X030804Y005604D01*
X030719Y005615D01*
X030634Y005630D01*
X030550Y005648D01*
X030467Y005671D01*
X030385Y005697D01*
X030304Y005727D01*
X030225Y005760D01*
X030148Y005797D01*
X030072Y005838D01*
X029998Y005882D01*
X029926Y005930D01*
X029857Y005980D01*
X029790Y006034D01*
X029725Y006091D01*
X029664Y006151D01*
X029605Y006213D01*
X029548Y006278D01*
X029495Y006346D01*
X029445Y006416D01*
X029399Y006488D01*
X029356Y006563D01*
X029316Y006639D01*
X029279Y006717D01*
X029247Y006796D01*
X029218Y006877D01*
X029193Y006960D01*
X029171Y007043D01*
X029153Y007127D01*
X029140Y007212D01*
X029130Y007297D01*
X029124Y007383D01*
X029122Y007469D01*
D12*
X032427Y004396D02*
X032427Y004289D01*
X032427Y004076D02*
X032427Y003649D01*
X032533Y003649D02*
X032320Y003649D01*
X032104Y003755D02*
X031997Y003649D01*
X031677Y003649D01*
X031677Y003542D02*
X031677Y004076D01*
X031997Y004076D01*
X032104Y003969D01*
X032104Y003755D01*
X031890Y003435D02*
X031783Y003435D01*
X031677Y003542D01*
X031459Y003649D02*
X031459Y004076D01*
X031139Y004076D01*
X031032Y003969D01*
X031032Y003649D01*
X030815Y003755D02*
X030815Y003969D01*
X030708Y004076D01*
X030494Y004076D01*
X030388Y003969D01*
X030388Y003862D01*
X030815Y003862D01*
X030815Y003755D02*
X030708Y003649D01*
X030494Y003649D01*
X030170Y003755D02*
X030170Y003969D01*
X030063Y004076D01*
X029743Y004076D01*
X029743Y004289D02*
X029743Y003649D01*
X030063Y003649D01*
X030170Y003755D01*
X029743Y003289D02*
X029743Y002649D01*
X030063Y002649D01*
X030170Y002755D01*
X030170Y002969D01*
X030063Y003076D01*
X029743Y003076D01*
X030388Y002969D02*
X030388Y002862D01*
X030815Y002862D01*
X030815Y002755D02*
X030708Y002649D01*
X030494Y002649D01*
X030815Y002755D02*
X030815Y002969D01*
X030708Y003076D01*
X030494Y003076D01*
X030388Y002969D01*
X031032Y003076D02*
X031352Y003076D01*
X031459Y002969D01*
X031352Y002862D01*
X031139Y002862D01*
X031032Y002755D01*
X031139Y002649D01*
X031459Y002649D01*
X031677Y002649D02*
X031677Y002969D01*
X031783Y003076D01*
X032104Y003076D01*
X032104Y002649D01*
X032321Y002862D02*
X032748Y002862D01*
X032748Y002755D02*
X032748Y002969D01*
X032641Y003076D01*
X032428Y003076D01*
X032321Y002969D01*
X032321Y002862D01*
X032428Y002649D02*
X032641Y002649D01*
X032748Y002755D01*
X032966Y002649D02*
X033286Y002649D01*
X033393Y002755D01*
X033393Y002969D01*
X033286Y003076D01*
X032966Y003076D01*
X033609Y002649D02*
X033822Y002649D01*
X033716Y002649D02*
X033716Y003076D01*
X033822Y003076D01*
X033716Y003289D02*
X033716Y003396D01*
X033716Y003649D02*
X033502Y003649D01*
X033716Y003649D02*
X033822Y003755D01*
X033822Y003969D01*
X033716Y004076D01*
X033502Y004076D01*
X033395Y003969D01*
X033395Y003862D01*
X033822Y003862D01*
X034040Y003755D02*
X034040Y004182D01*
X034147Y004289D01*
X034467Y004289D01*
X034467Y003649D01*
X034147Y003649D01*
X034040Y003755D01*
X033178Y003649D02*
X032858Y003649D01*
X032751Y003755D01*
X032858Y003862D01*
X033071Y003862D01*
X033178Y003969D01*
X033071Y004076D01*
X032751Y004076D01*
X032533Y004076D02*
X032427Y004076D01*
X034467Y003289D02*
X034467Y002649D01*
X034040Y002649D01*
X034467Y002289D02*
X034467Y001649D01*
X034467Y001969D02*
X034360Y002076D01*
X034147Y002076D01*
X034040Y001969D01*
X034040Y001649D01*
X033716Y001755D02*
X033609Y001649D01*
X033716Y001755D02*
X033716Y002182D01*
X033822Y002076D02*
X033609Y002076D01*
X033393Y002076D02*
X033179Y002076D01*
X033286Y002182D02*
X033286Y001755D01*
X033179Y001649D01*
X032963Y001649D02*
X032643Y001649D01*
X032536Y001755D01*
X032536Y001969D01*
X032643Y002076D01*
X032963Y002076D01*
X032963Y001435D01*
X032319Y001649D02*
X032319Y001755D01*
X032212Y001755D01*
X032212Y001649D01*
X032319Y001649D01*
X031996Y001649D02*
X031569Y002289D01*
X032212Y002076D02*
X032212Y001969D01*
X032319Y001969D01*
X032319Y002076D01*
X032212Y002076D01*
X031352Y001649D02*
X030925Y002289D01*
X030707Y002289D02*
X030707Y001649D01*
X030280Y001649D02*
X030280Y001969D01*
X030387Y002076D01*
X030600Y002076D01*
X030707Y001969D01*
X030063Y001755D02*
X029956Y001649D01*
X029636Y001649D01*
X029636Y001969D01*
X029742Y002076D01*
X029956Y002076D01*
X029956Y001862D02*
X029636Y001862D01*
X029418Y001969D02*
X029418Y001755D01*
X029311Y001649D01*
X028991Y001649D01*
X028774Y001649D02*
X028774Y002289D01*
X028991Y002076D02*
X029311Y002076D01*
X029418Y001969D01*
X029956Y001862D02*
X030063Y001755D01*
X028774Y001862D02*
X028453Y002076D01*
X028236Y001969D02*
X028130Y002076D01*
X027809Y002076D01*
X027592Y002076D02*
X027378Y002076D01*
X027485Y002182D02*
X027485Y001755D01*
X027378Y001649D01*
X027162Y001649D02*
X027162Y002076D01*
X026949Y002076D02*
X026842Y002076D01*
X026949Y002076D02*
X027162Y001862D01*
X026625Y002076D02*
X026518Y002076D01*
X026518Y001649D01*
X026412Y001649D02*
X026625Y001649D01*
X026195Y001755D02*
X026089Y001649D01*
X025768Y001649D01*
X025551Y001649D02*
X025551Y002289D01*
X025444Y002076D02*
X025231Y002076D01*
X025124Y001969D01*
X025124Y001649D01*
X024906Y001649D02*
X024906Y001755D01*
X024799Y001755D01*
X024799Y001649D01*
X024906Y001649D01*
X024584Y001649D02*
X024264Y001649D01*
X024157Y001755D01*
X024264Y001862D01*
X024477Y001862D01*
X024584Y001969D01*
X024477Y002076D01*
X024157Y002076D01*
X023939Y001969D02*
X023833Y002076D01*
X023619Y002076D01*
X023512Y001969D01*
X023512Y001862D01*
X023939Y001862D01*
X023939Y001755D02*
X023939Y001969D01*
X023939Y001755D02*
X023833Y001649D01*
X023619Y001649D01*
X023295Y001649D02*
X023295Y002076D01*
X022975Y002076D01*
X022868Y001969D01*
X022868Y001649D01*
X022650Y001649D02*
X022650Y001755D01*
X022544Y001755D01*
X022544Y001649D01*
X022650Y001649D01*
X022328Y001755D02*
X022221Y001649D01*
X021901Y001649D01*
X021683Y001649D02*
X021256Y002076D01*
X021683Y002076D02*
X021256Y001649D01*
X021039Y001649D02*
X020612Y002289D01*
X020394Y002182D02*
X020394Y001755D01*
X020288Y001649D01*
X020074Y001649D01*
X019967Y001755D01*
X019750Y001755D02*
X019643Y001649D01*
X019430Y001649D01*
X019323Y001755D01*
X019323Y001969D01*
X019430Y002076D01*
X019643Y002076D01*
X019750Y001969D01*
X019750Y001755D01*
X019105Y001649D02*
X019105Y002076D01*
X018785Y002076D01*
X018678Y001969D01*
X018678Y001649D01*
X018354Y001755D02*
X018247Y001649D01*
X018354Y001755D02*
X018354Y002182D01*
X018461Y002076D02*
X018247Y002076D01*
X018031Y002076D02*
X017924Y002076D01*
X017924Y001649D01*
X017818Y001649D02*
X018031Y001649D01*
X017601Y001649D02*
X017601Y002076D01*
X017281Y002076D01*
X017174Y001969D01*
X017174Y001649D01*
X016957Y001755D02*
X016850Y001649D01*
X016530Y001649D01*
X016530Y002076D01*
X016312Y002076D02*
X016205Y002076D01*
X016205Y001649D01*
X016099Y001649D02*
X016312Y001649D01*
X016957Y001755D02*
X016957Y002076D01*
X016205Y002289D02*
X016205Y002396D01*
X015776Y002182D02*
X015776Y001755D01*
X015669Y001649D01*
X015453Y001755D02*
X015346Y001649D01*
X015026Y001649D01*
X015026Y001542D02*
X015133Y001435D01*
X015239Y001435D01*
X015026Y001542D02*
X015026Y002076D01*
X015453Y002076D02*
X015453Y001755D01*
X015669Y002076D02*
X015883Y002076D01*
X015990Y002649D02*
X015670Y002649D01*
X015563Y002755D01*
X015670Y002862D01*
X015883Y002862D01*
X015990Y002969D01*
X015883Y003076D01*
X015563Y003076D01*
X016207Y002969D02*
X016207Y002649D01*
X016635Y002649D02*
X016635Y003076D01*
X016314Y003076D01*
X016207Y002969D01*
X016852Y002969D02*
X016852Y002755D01*
X016959Y002649D01*
X017172Y002649D01*
X017279Y002755D01*
X017279Y002969D01*
X017172Y003076D01*
X016959Y003076D01*
X016852Y002969D01*
X017497Y002969D02*
X017497Y002649D01*
X017710Y002649D02*
X017710Y002969D01*
X017603Y003076D01*
X017497Y002969D01*
X017710Y002969D02*
X017817Y003076D01*
X017924Y003076D01*
X017924Y002649D01*
X018141Y002649D02*
X018141Y002969D01*
X018248Y003076D01*
X018355Y002969D01*
X018355Y002649D01*
X018568Y002649D02*
X018568Y003076D01*
X018461Y003076D01*
X018355Y002969D01*
X018786Y002969D02*
X018892Y003076D01*
X019106Y003076D01*
X019213Y002969D01*
X019213Y002755D01*
X019106Y002649D01*
X018892Y002649D01*
X018786Y002755D01*
X018786Y002969D01*
X019430Y003182D02*
X019537Y003289D01*
X019750Y003289D01*
X019857Y003182D01*
X019857Y002755D01*
X019750Y002649D01*
X019537Y002649D01*
X019430Y002755D01*
X019967Y002182D02*
X020074Y002289D01*
X020288Y002289D01*
X020394Y002182D01*
X020826Y002649D02*
X021040Y002649D01*
X021146Y002755D01*
X021146Y002969D01*
X021040Y003076D01*
X020826Y003076D01*
X020719Y002969D01*
X020719Y002862D01*
X021146Y002862D01*
X021364Y003076D02*
X021577Y002649D01*
X021791Y003076D01*
X022114Y003076D02*
X022114Y002649D01*
X022221Y002649D02*
X022007Y002649D01*
X022437Y002649D02*
X022544Y002755D01*
X022544Y003182D01*
X022650Y003076D02*
X022437Y003076D01*
X022221Y003076D02*
X022114Y003076D01*
X022114Y003289D02*
X022114Y003396D01*
X022223Y003649D02*
X022650Y003649D01*
X022223Y004076D01*
X022223Y004182D01*
X022330Y004289D01*
X022544Y004289D01*
X022650Y004182D01*
X022006Y004182D02*
X021899Y004289D01*
X021685Y004289D01*
X021579Y004182D01*
X022006Y003755D01*
X021899Y003649D01*
X021685Y003649D01*
X021579Y003755D01*
X021579Y004182D01*
X021361Y004076D02*
X021148Y004289D01*
X021148Y003649D01*
X021361Y003649D02*
X020934Y003649D01*
X020717Y003649D02*
X020717Y003755D01*
X020290Y004182D01*
X020290Y004289D01*
X020717Y004289D01*
X022006Y004182D02*
X022006Y003755D01*
X023512Y003649D02*
X023512Y003969D01*
X023619Y004076D01*
X023939Y004076D01*
X023939Y003649D01*
X024156Y003649D02*
X024369Y003649D01*
X024262Y003649D02*
X024262Y004076D01*
X024369Y004076D01*
X024262Y004289D02*
X024262Y004396D01*
X025231Y003969D02*
X025231Y003649D01*
X025658Y003649D02*
X025658Y004076D01*
X025338Y004076D01*
X025231Y003969D01*
X025876Y003969D02*
X025876Y003862D01*
X026303Y003862D01*
X026303Y003755D02*
X026303Y003969D01*
X026196Y004076D01*
X025982Y004076D01*
X025876Y003969D01*
X026196Y003649D02*
X026303Y003755D01*
X026196Y003649D02*
X025982Y003649D01*
X026520Y003755D02*
X026627Y003649D01*
X026947Y003649D01*
X026841Y003862D02*
X026627Y003862D01*
X026520Y003755D01*
X026841Y003862D02*
X026947Y003969D01*
X026841Y004076D01*
X026520Y004076D01*
X027809Y004076D02*
X027809Y003542D01*
X027916Y003435D01*
X028023Y003435D01*
X028130Y003649D02*
X027809Y003649D01*
X028130Y003649D02*
X028236Y003755D01*
X028236Y004076D01*
X028454Y003969D02*
X028561Y004076D01*
X028881Y004076D01*
X028881Y004289D02*
X028881Y003649D01*
X028561Y003649D01*
X028454Y003755D01*
X028454Y003969D01*
X027165Y003289D02*
X027165Y002649D01*
X027485Y002649D01*
X027592Y002755D01*
X027592Y002969D01*
X027485Y003076D01*
X027165Y003076D01*
X026947Y002969D02*
X026841Y003076D01*
X026627Y003076D01*
X026520Y002969D01*
X026520Y002862D01*
X026947Y002862D01*
X026947Y002755D02*
X026947Y002969D01*
X026947Y002755D02*
X026841Y002649D01*
X026627Y002649D01*
X026303Y002649D02*
X026303Y003076D01*
X026303Y002862D02*
X026089Y003076D01*
X025982Y003076D01*
X025121Y003182D02*
X025121Y002755D01*
X025014Y002649D01*
X024801Y002649D01*
X024694Y002755D01*
X024477Y002649D02*
X024477Y003076D01*
X024477Y002862D02*
X024263Y003076D01*
X024156Y003076D01*
X023939Y002969D02*
X023833Y003076D01*
X023619Y003076D01*
X023512Y002969D01*
X023512Y002862D01*
X023939Y002862D01*
X023939Y002755D02*
X023833Y002649D01*
X023619Y002649D01*
X023939Y002755D02*
X023939Y002969D01*
X023295Y002755D02*
X023188Y002862D01*
X022868Y002862D01*
X022868Y002969D02*
X022868Y002649D01*
X023188Y002649D01*
X023295Y002755D01*
X023188Y003076D02*
X022975Y003076D01*
X022868Y002969D01*
X024694Y003182D02*
X024801Y003289D01*
X025014Y003289D01*
X025121Y003182D01*
X026518Y002396D02*
X026518Y002289D01*
X026195Y001969D02*
X026195Y001755D01*
X026195Y001969D02*
X026089Y002076D01*
X025768Y002076D01*
X025551Y001969D02*
X025444Y002076D01*
X027809Y001755D02*
X027916Y001862D01*
X028130Y001862D01*
X028236Y001969D01*
X027916Y001649D02*
X027809Y001755D01*
X027916Y001649D02*
X028236Y001649D01*
X028453Y001649D02*
X028774Y001862D01*
X028774Y002649D02*
X028454Y002649D01*
X028454Y003076D01*
X028236Y003076D02*
X027916Y003076D01*
X027809Y002969D01*
X027809Y002649D01*
X028236Y002649D02*
X028236Y003076D01*
X028881Y003076D02*
X028881Y002755D01*
X028774Y002649D01*
X022328Y001969D02*
X022328Y001755D01*
X022328Y001969D02*
X022221Y002076D01*
X021901Y002076D01*
X017924Y002289D02*
X017924Y002396D01*
X014808Y001542D02*
X014381Y001542D01*
X013950Y001649D02*
X013950Y002289D01*
X013737Y002289D02*
X014164Y002289D01*
X013519Y001969D02*
X013412Y002076D01*
X013199Y002076D01*
X013092Y001969D01*
X013092Y001862D01*
X013519Y001862D01*
X013519Y001755D02*
X013519Y001969D01*
X013519Y001755D02*
X013412Y001649D01*
X013199Y001649D01*
X012875Y001649D02*
X012554Y001649D01*
X012448Y001755D01*
X012554Y001862D01*
X012768Y001862D01*
X012875Y001969D01*
X012768Y002076D01*
X012448Y002076D01*
X012230Y002076D02*
X012017Y002076D01*
X012123Y002182D02*
X012123Y001755D01*
X012017Y001649D01*
X011800Y001755D02*
X011800Y001969D01*
X011694Y002076D01*
X011480Y002076D01*
X011373Y001969D01*
X011373Y001862D01*
X011800Y001862D01*
X011800Y001755D02*
X011694Y001649D01*
X011480Y001649D01*
X011156Y001649D02*
X011156Y002076D01*
X010942Y002076D02*
X010836Y002076D01*
X010942Y002076D02*
X011156Y001862D01*
X011696Y002649D02*
X011696Y003076D01*
X011909Y003289D01*
X012123Y003076D01*
X012123Y002649D01*
X012340Y002755D02*
X012340Y002862D01*
X012447Y002969D01*
X012660Y002969D01*
X012767Y003076D01*
X012767Y003182D01*
X012660Y003289D01*
X012447Y003289D01*
X012340Y003182D01*
X012123Y002969D02*
X011696Y002969D01*
X012340Y002755D02*
X012447Y002649D01*
X012660Y002649D01*
X012767Y002755D01*
X012985Y002969D02*
X013412Y002969D01*
X013629Y003182D02*
X013629Y003289D01*
X013629Y003182D02*
X013843Y002969D01*
X013843Y002649D01*
X014274Y002755D02*
X014274Y002862D01*
X014381Y002969D01*
X014701Y002969D01*
X014381Y002969D02*
X014274Y003076D01*
X014274Y003182D01*
X014381Y003289D01*
X014701Y003289D01*
X014701Y002649D01*
X014381Y002649D01*
X014274Y002755D01*
X014056Y003182D02*
X013843Y002969D01*
X014056Y003182D02*
X014056Y003289D01*
D13*
X029193Y011282D02*
X029336Y011139D01*
X029623Y011139D01*
X029767Y011282D01*
X029767Y011856D01*
X029623Y011999D01*
X029336Y011999D01*
X029193Y011856D01*
X029193Y011282D01*
X030114Y011282D02*
X030257Y011139D01*
X030544Y011139D01*
X030687Y011282D01*
X030687Y011856D01*
X030544Y011999D01*
X030257Y011999D01*
X030114Y011856D01*
X031034Y011999D02*
X031608Y011999D01*
X031608Y011139D01*
X031034Y011139D01*
X031321Y011569D02*
X031608Y011569D01*
D14*
X028207Y011569D02*
X027593Y011569D01*
X027593Y011722D02*
X027593Y011109D01*
X028207Y011109D02*
X028207Y011722D01*
X027900Y012029D01*
X027593Y011722D01*
X023207Y011569D02*
X022747Y011569D01*
X022593Y011416D01*
X022593Y011262D01*
X022747Y011109D01*
X023207Y011109D01*
X023207Y012029D01*
X022747Y012029D01*
X022593Y011876D01*
X022593Y011722D01*
X022747Y011569D01*
X018457Y011262D02*
X018304Y011109D01*
X017997Y011109D01*
X017843Y011262D01*
X018457Y011262D02*
X018457Y011876D01*
X018304Y012029D01*
X017997Y012029D01*
X017843Y011876D01*
D15*
X016247Y011619D03*
X020997Y011619D03*
X025997Y011619D03*
D16*
X006997Y003344D03*
D17*
X007035Y005254D02*
X007035Y006084D01*
X007174Y006084D01*
X007587Y005807D02*
X007449Y005669D01*
X007449Y005254D01*
X007864Y005254D01*
X008002Y005392D01*
X007864Y005531D01*
X007449Y005531D01*
X007587Y005807D02*
X007864Y005807D01*
X008416Y005807D02*
X008416Y005254D01*
X008278Y005254D02*
X008555Y005254D01*
X009245Y005254D02*
X009245Y005807D01*
X008969Y005807D02*
X008830Y005807D01*
X008969Y005807D02*
X009245Y005531D01*
X009520Y005531D02*
X009520Y005669D01*
X009659Y005807D01*
X009936Y005807D01*
X010074Y005669D01*
X010074Y005392D01*
X009936Y005254D01*
X009659Y005254D01*
X009520Y005531D02*
X010074Y005531D01*
X010349Y005531D02*
X010349Y005392D01*
X010488Y005254D01*
X010764Y005254D01*
X010903Y005392D01*
X010764Y005669D02*
X010488Y005669D01*
X010349Y005531D01*
X010764Y005669D02*
X010903Y005807D01*
X010903Y005946D01*
X010764Y006084D01*
X010488Y006084D01*
X010349Y005946D01*
X008555Y005807D02*
X008416Y005807D01*
X008416Y006084D02*
X008416Y006223D01*
X007174Y005254D02*
X006897Y005254D01*
D18*
X002881Y001813D02*
X001850Y002845D01*
X001820Y002874D01*
X001598Y002566D01*
X002573Y001591D01*
X002881Y001813D01*
X033342Y013145D02*
X033650Y013367D01*
X034624Y012393D01*
X034402Y012085D01*
X034373Y012114D01*
X033342Y013145D01*
D19*
G36*
X034137Y012704D02*
X033961Y012880D01*
X034049Y012968D01*
X034225Y012792D01*
X034137Y012704D01*
G37*
G36*
X002086Y002255D02*
X002262Y002079D01*
X002174Y001991D01*
X001998Y002167D01*
X002086Y002255D01*
G37*
M02*
