G75*
%MOIN*%
%OFA0B0*%
%FSLAX24Y24*%
%IPPOS*%
%LPD*%
%AMOC8*
5,1,8,0,0,1.08239X$1,22.5*
%
%ADD10C,0.1181*%
%ADD11R,0.0591X0.0335*%
%ADD12R,0.0394X0.0433*%
%ADD13C,0.0472*%
%ADD14R,0.0472X0.0472*%
%ADD15OC8,0.0472*%
%ADD16C,0.0160*%
%ADD17C,0.0376*%
D10*
X008747Y004975D03*
X010747Y004975D03*
X010747Y006975D03*
X008747Y006975D03*
X020997Y006975D03*
X022997Y006975D03*
X022997Y004975D03*
X020997Y004975D03*
D11*
G36*
X002762Y001425D02*
X003178Y001009D01*
X002942Y000773D01*
X002526Y001189D01*
X002762Y001425D01*
G37*
G36*
X001760Y002427D02*
X002176Y002011D01*
X001940Y001775D01*
X001524Y002191D01*
X001760Y002427D01*
G37*
G36*
X028961Y011422D02*
X028545Y011838D01*
X028781Y012074D01*
X029197Y011658D01*
X028961Y011422D01*
G37*
G36*
X029963Y010419D02*
X029547Y010835D01*
X029783Y011071D01*
X030199Y010655D01*
X029963Y010419D01*
G37*
D12*
G36*
X029147Y010270D02*
X028868Y010549D01*
X029173Y010854D01*
X029452Y010575D01*
X029147Y010270D01*
G37*
G36*
X028674Y010743D02*
X028395Y011022D01*
X028700Y011327D01*
X028979Y011048D01*
X028674Y010743D01*
G37*
G36*
X003085Y002119D02*
X003364Y001840D01*
X003059Y001535D01*
X002780Y001814D01*
X003085Y002119D01*
G37*
G36*
X002612Y002592D02*
X002891Y002313D01*
X002586Y002008D01*
X002307Y002287D01*
X002612Y002592D01*
G37*
D13*
X005297Y009608D03*
X005297Y010592D03*
X007659Y010592D03*
X008447Y010592D03*
X008447Y009608D03*
X007659Y009608D03*
D14*
X006872Y009608D03*
X006872Y010592D03*
D15*
X004274Y011202D03*
X009470Y008998D03*
D16*
X008447Y009600D02*
X008447Y009608D01*
X010564Y011725D01*
X010747Y011725D01*
X025747Y011725D01*
X027947Y009525D01*
X028697Y009525D01*
X028701Y009529D01*
X028702Y009529D01*
X028702Y011020D01*
X028687Y011035D01*
X028123Y011474D02*
X028123Y009904D01*
X029160Y010562D02*
X029689Y010562D01*
X029873Y010745D01*
X028397Y011748D02*
X028123Y011474D01*
X028397Y011748D02*
X028871Y011748D01*
X012447Y005975D02*
X011672Y005200D01*
X011672Y003850D01*
X003496Y001099D02*
X002852Y001099D01*
X003072Y001827D02*
X003072Y002427D01*
X002635Y002863D01*
X002599Y002300D02*
X002048Y002300D01*
X001850Y002101D01*
X005297Y009608D02*
X005789Y010100D01*
X007997Y010100D01*
X008447Y009650D01*
X008447Y009608D01*
X008447Y009608D01*
X022122Y002600D02*
X022247Y002725D01*
X022122Y002600D02*
X022122Y001725D01*
D17*
X022122Y001725D03*
X022247Y002725D03*
X012447Y005975D03*
X011672Y003850D03*
X003496Y001099D03*
X002635Y002863D03*
X028123Y009904D03*
X028702Y009529D03*
M02*
