G75*
%MOIN*%
%OFA0B0*%
%FSLAX24Y24*%
%IPPOS*%
%LPD*%
%AMOC8*
5,1,8,0,0,1.08239X$1,22.5*
%
%ADD10C,0.1261*%
%ADD11C,0.5080*%
%ADD12R,0.1180X0.2080*%
%ADD13R,0.1419X0.0592*%
%ADD14R,0.0867X0.0867*%
%ADD15R,0.0867X0.0710*%
%ADD16R,0.0671X0.0415*%
%ADD17R,0.0950X0.0320*%
%ADD18R,0.0513X0.0474*%
%ADD19R,0.0474X0.0513*%
%ADD20C,0.0580*%
%ADD21C,0.0552*%
%ADD22R,0.0552X0.0552*%
%ADD23OC8,0.0552*%
%ADD24R,0.0552X0.0297*%
%ADD25R,0.0395X0.0434*%
D10*
X008747Y004975D03*
X010747Y004975D03*
X010747Y006975D03*
X008747Y006975D03*
X020997Y006975D03*
X022997Y006975D03*
X022997Y004975D03*
X020997Y004975D03*
D11*
X015872Y009100D03*
D12*
X011572Y009100D03*
X020172Y009100D03*
D13*
X017747Y004513D03*
X017747Y001087D03*
D14*
X025710Y001975D03*
D15*
X027284Y001512D03*
X027284Y002438D03*
D16*
G36*
X030308Y002139D02*
X029835Y001666D01*
X029542Y001959D01*
X030015Y002432D01*
X030308Y002139D01*
G37*
G36*
X029306Y001137D02*
X028833Y000664D01*
X028540Y000957D01*
X029013Y001430D01*
X029306Y001137D01*
G37*
G36*
X002438Y011606D02*
X002911Y012079D01*
X003204Y011786D01*
X002731Y011313D01*
X002438Y011606D01*
G37*
G36*
X001436Y010604D02*
X001909Y011077D01*
X002202Y010784D01*
X001729Y010311D01*
X001436Y010604D01*
G37*
D17*
X011842Y002475D03*
X011842Y001975D03*
X011842Y001475D03*
X011842Y000975D03*
X013902Y000975D03*
X013902Y001475D03*
X013902Y001975D03*
X013902Y002475D03*
X021342Y002225D03*
X021342Y002725D03*
X023402Y002725D03*
X023402Y002225D03*
X023402Y001725D03*
X023402Y001225D03*
X021342Y001225D03*
X021342Y001725D03*
D18*
X020532Y002725D03*
X019862Y002725D03*
X024162Y001925D03*
X024832Y001925D03*
X024832Y001100D03*
X024162Y001100D03*
X015332Y001100D03*
X014662Y001100D03*
X010897Y002715D03*
X010097Y002715D03*
X010097Y003385D03*
X010897Y003385D03*
X007597Y002635D03*
X006797Y002635D03*
X006797Y001965D03*
X007597Y001965D03*
X014662Y002775D03*
X015332Y002775D03*
X015332Y003600D03*
X014662Y003600D03*
D19*
X005997Y001965D03*
X005997Y002635D03*
X014662Y001975D03*
X015332Y001975D03*
X019862Y001725D03*
X020532Y001725D03*
X024162Y002725D03*
X024832Y002725D03*
G36*
X029050Y001762D02*
X028715Y001427D01*
X028354Y001788D01*
X028689Y002123D01*
X029050Y001762D01*
G37*
G36*
X029524Y002235D02*
X029189Y001900D01*
X028828Y002261D01*
X029163Y002596D01*
X029524Y002235D01*
G37*
G36*
X002761Y010871D02*
X003096Y011206D01*
X003457Y010845D01*
X003122Y010510D01*
X002761Y010871D01*
G37*
G36*
X002287Y010398D02*
X002622Y010733D01*
X002983Y010372D01*
X002648Y010037D01*
X002287Y010398D01*
G37*
D20*
X010447Y010825D03*
X012872Y004350D03*
X008247Y003225D03*
X010472Y001950D03*
X004047Y002875D03*
D21*
X005297Y009608D03*
X005297Y010592D03*
X007659Y010592D03*
X008447Y010592D03*
X008447Y009608D03*
X007659Y009608D03*
D22*
X006872Y009608D03*
X006872Y010592D03*
D23*
X004274Y011202D03*
X009470Y008998D03*
D24*
X009359Y002699D03*
X009359Y002325D03*
X009359Y001951D03*
X008335Y001951D03*
X008335Y002699D03*
D25*
X021594Y008150D03*
X022500Y008150D03*
M02*
