%
M48
M72
T01C0.0236
T02C0.0315
%
T01
X1819Y3607
X2635Y3607
X11697Y8169
X14747Y8719
X8747Y9469
X33676Y11147
X34373Y11147
T02
X27497Y8469
X25497Y8469
X25497Y6469
X27497Y6469
X13497Y9386
X12497Y9386
X11497Y9386
X10747Y8469
X8747Y8469
X8747Y6469
X10747Y6469
X11497Y10386
X12497Y10386
X13497Y10386
X13497Y12386
X11497Y12386
M30
