G75*
%MOIN*%
%OFA0B0*%
%FSLAX24Y24*%
%IPPOS*%
%LPD*%
%AMOC8*
5,1,8,0,0,1.08239X$1,22.5*
%
%ADD10C,0.0000*%
%ADD11C,0.0090*%
%ADD12C,0.0060*%
%ADD13C,0.0100*%
%ADD14C,0.0050*%
%ADD15C,0.0080*%
%ADD16C,0.0138*%
%ADD17R,0.0250X0.0125*%
%ADD18C,0.0059*%
%ADD19R,0.0079X0.0020*%
%ADD20R,0.0098X0.0020*%
%ADD21R,0.0059X0.0020*%
%ADD22R,0.0118X0.0020*%
%ADD23R,0.0157X0.0020*%
%ADD24R,0.0197X0.0020*%
%ADD25R,0.0138X0.0020*%
%ADD26R,0.0217X0.0020*%
%ADD27R,0.0020X0.0020*%
%ADD28R,0.0354X0.0020*%
%ADD29R,0.0571X0.0020*%
%ADD30R,0.0531X0.0020*%
%ADD31R,0.0492X0.0020*%
%ADD32R,0.0039X0.0020*%
%ADD33R,0.0630X0.0020*%
%ADD34R,0.0768X0.0020*%
%ADD35R,0.0886X0.0020*%
%ADD36R,0.0394X0.0020*%
%ADD37R,0.0256X0.0020*%
%ADD38R,0.0177X0.0020*%
%ADD39R,0.0236X0.0020*%
%ADD40R,0.0295X0.0020*%
%ADD41R,0.0374X0.0020*%
%ADD42R,0.0413X0.0020*%
%ADD43R,0.0276X0.0020*%
%ADD44R,0.0472X0.0020*%
%ADD45R,0.0728X0.0020*%
%ADD46R,0.0610X0.0020*%
%ADD47R,0.0335X0.0020*%
D10*
X001747Y001219D02*
X034497Y001219D01*
X034541Y001221D01*
X034584Y001227D01*
X034626Y001236D01*
X034668Y001249D01*
X034708Y001266D01*
X034747Y001286D01*
X034784Y001309D01*
X034818Y001336D01*
X034851Y001365D01*
X034880Y001398D01*
X034907Y001432D01*
X034930Y001469D01*
X034950Y001508D01*
X034967Y001548D01*
X034980Y001590D01*
X034989Y001632D01*
X034995Y001675D01*
X034997Y001719D01*
X034997Y013219D01*
X034995Y013263D01*
X034989Y013306D01*
X034980Y013348D01*
X034967Y013390D01*
X034950Y013430D01*
X034930Y013469D01*
X034907Y013506D01*
X034880Y013540D01*
X034851Y013573D01*
X034818Y013602D01*
X034784Y013629D01*
X034747Y013652D01*
X034708Y013672D01*
X034668Y013689D01*
X034626Y013702D01*
X034584Y013711D01*
X034541Y013717D01*
X034497Y013719D01*
X001747Y013719D01*
X001703Y013717D01*
X001660Y013711D01*
X001618Y013702D01*
X001576Y013689D01*
X001536Y013672D01*
X001497Y013652D01*
X001460Y013629D01*
X001426Y013602D01*
X001393Y013573D01*
X001364Y013540D01*
X001337Y013506D01*
X001314Y013469D01*
X001294Y013430D01*
X001277Y013390D01*
X001264Y013348D01*
X001255Y013306D01*
X001249Y013263D01*
X001247Y013219D01*
X001247Y001719D01*
X001249Y001675D01*
X001255Y001632D01*
X001264Y001590D01*
X001277Y001548D01*
X001294Y001508D01*
X001314Y001469D01*
X001337Y001432D01*
X001364Y001398D01*
X001393Y001365D01*
X001426Y001336D01*
X001460Y001309D01*
X001497Y001286D01*
X001536Y001266D01*
X001576Y001249D01*
X001618Y001236D01*
X001660Y001227D01*
X001703Y001221D01*
X001747Y001219D01*
D11*
X014691Y011491D02*
X014962Y011221D01*
X015502Y011221D01*
X015097Y011221D02*
X015097Y011761D01*
X014962Y011761D02*
X015502Y011761D01*
X014962Y011761D02*
X014691Y011491D01*
X014691Y012049D02*
X015367Y012049D01*
X015502Y012184D01*
X015502Y012455D01*
X015367Y012590D01*
X014691Y012590D01*
X014691Y012878D02*
X014691Y013283D01*
X014826Y013418D01*
X015367Y013418D01*
X015502Y013283D01*
X015502Y012878D01*
X014691Y012878D01*
X010252Y012875D02*
X010117Y012740D01*
X010252Y012875D02*
X010252Y013145D01*
X010117Y013280D01*
X009982Y013280D01*
X009847Y013145D01*
X009847Y012875D01*
X009712Y012740D01*
X009576Y012740D01*
X009441Y012875D01*
X009441Y013145D01*
X009576Y013280D01*
X009441Y012458D02*
X009441Y012187D01*
X009441Y012323D02*
X010252Y012323D01*
X010252Y012458D02*
X010252Y012187D01*
X009982Y011899D02*
X009441Y011899D01*
X009982Y011899D02*
X010252Y011629D01*
X009982Y011359D01*
X009441Y011359D01*
D12*
X007480Y011039D02*
X007480Y010399D01*
X007693Y010399D02*
X007266Y010399D01*
X007049Y010505D02*
X006942Y010399D01*
X006728Y010399D01*
X006622Y010505D01*
X007049Y010932D01*
X007049Y010505D01*
X006622Y010505D02*
X006622Y010932D01*
X006728Y011039D01*
X006942Y011039D01*
X007049Y010932D01*
X007266Y010826D02*
X007480Y011039D01*
X006404Y010932D02*
X005977Y010505D01*
X006084Y010399D01*
X006297Y010399D01*
X006404Y010505D01*
X006404Y010932D01*
X006297Y011039D01*
X006084Y011039D01*
X005977Y010932D01*
X005977Y010505D01*
X005760Y010826D02*
X005546Y010399D01*
X005332Y010826D01*
X005115Y010719D02*
X005115Y010612D01*
X004688Y010612D01*
X004688Y010505D02*
X004688Y010719D01*
X004795Y010826D01*
X005008Y010826D01*
X005115Y010719D01*
X005008Y010399D02*
X004795Y010399D01*
X004688Y010505D01*
X004470Y010399D02*
X004257Y010612D01*
X004364Y010612D02*
X004043Y010612D01*
X004043Y010399D02*
X004043Y011039D01*
X004364Y011039D01*
X004470Y010932D01*
X004470Y010719D01*
X004364Y010612D01*
X008927Y004820D02*
X009033Y004820D01*
X009247Y004607D01*
X009567Y004607D01*
X009247Y004607D02*
X009033Y004393D01*
X008927Y004393D01*
X008927Y004176D02*
X008927Y003749D01*
X008927Y003962D02*
X009567Y003962D01*
X009460Y003531D02*
X008927Y003531D01*
X008927Y003104D02*
X009460Y003104D01*
X009567Y003211D01*
X009567Y003424D01*
X009460Y003531D01*
X009460Y002887D02*
X009033Y002887D01*
X008927Y002780D01*
X008927Y002460D01*
X009567Y002460D01*
X009567Y002780D01*
X009460Y002887D01*
X019287Y002789D02*
X020707Y002789D01*
X020707Y004649D02*
X019287Y004649D01*
X027027Y004213D02*
X027027Y004000D01*
X027133Y003893D01*
X027560Y003893D01*
X027667Y004000D01*
X027667Y004213D01*
X027560Y004320D01*
X027133Y004320D01*
X027027Y004213D01*
X027454Y004107D02*
X027667Y004320D01*
X027667Y003676D02*
X027667Y003249D01*
X027027Y003249D01*
X027027Y003676D01*
X027347Y003462D02*
X027347Y003249D01*
X027347Y003031D02*
X027133Y003031D01*
X027027Y002924D01*
X027027Y002604D01*
X027667Y002604D01*
X027454Y002604D02*
X027454Y002924D01*
X027347Y003031D01*
X027454Y002818D02*
X027667Y003031D01*
X027027Y002387D02*
X027027Y001960D01*
X027667Y001960D01*
X027347Y001960D02*
X027347Y002173D01*
X022043Y012749D02*
X021616Y012749D01*
X022043Y013176D01*
X022043Y013282D01*
X021936Y013389D01*
X021723Y013389D01*
X021616Y013282D01*
X021399Y013282D02*
X021399Y013176D01*
X021292Y013069D01*
X021399Y012962D01*
X021399Y012855D01*
X021292Y012749D01*
X021078Y012749D01*
X020972Y012855D01*
X020754Y012855D02*
X020647Y012749D01*
X020434Y012749D01*
X020327Y012855D01*
X020754Y013282D01*
X020754Y012855D01*
X020327Y012855D02*
X020327Y013282D01*
X020434Y013389D01*
X020647Y013389D01*
X020754Y013282D01*
X020972Y013282D02*
X021078Y013389D01*
X021292Y013389D01*
X021399Y013282D01*
X021292Y013069D02*
X021185Y013069D01*
X020110Y013176D02*
X020110Y013282D01*
X020003Y013389D01*
X019789Y013389D01*
X019682Y013282D01*
X019465Y013282D02*
X019465Y013069D01*
X019358Y012962D01*
X019038Y012962D01*
X019038Y012749D02*
X019038Y013389D01*
X019358Y013389D01*
X019465Y013282D01*
X019251Y012962D02*
X019465Y012749D01*
X019682Y012749D02*
X020110Y013176D01*
X020110Y012749D02*
X019682Y012749D01*
X018820Y012855D02*
X018714Y012749D01*
X018500Y012749D01*
X018393Y012855D01*
X018393Y013282D01*
X018500Y013389D01*
X018714Y013389D01*
X018820Y013282D01*
D13*
X026057Y012969D02*
X026057Y012369D01*
X026207Y012219D01*
X026507Y012219D01*
X026657Y012369D01*
X026978Y012369D02*
X027128Y012219D01*
X027428Y012219D01*
X027578Y012369D01*
X027578Y012669D01*
X027428Y012819D01*
X027128Y012819D01*
X026978Y012669D01*
X026978Y012369D01*
X027899Y012219D02*
X027899Y012819D01*
X028349Y012819D01*
X028499Y012669D01*
X028499Y012219D01*
X028969Y012369D02*
X029120Y012219D01*
X028969Y012369D02*
X028969Y012969D01*
X028819Y012819D02*
X029120Y012819D01*
X029433Y012819D02*
X029583Y012819D01*
X029583Y012219D01*
X029433Y012219D02*
X029733Y012219D01*
X030047Y012219D02*
X030047Y012819D01*
X030497Y012819D01*
X030648Y012669D01*
X030648Y012219D01*
X030968Y012369D02*
X031118Y012219D01*
X031568Y012219D01*
X031568Y012819D01*
X031889Y012819D02*
X032039Y012819D01*
X032039Y012219D01*
X031889Y012219D02*
X032189Y012219D01*
X032653Y012369D02*
X032803Y012219D01*
X032653Y012369D02*
X032653Y012969D01*
X032502Y012819D02*
X032803Y012819D01*
X033116Y012819D02*
X033116Y012369D01*
X033266Y012219D01*
X033717Y012219D01*
X033717Y012069D02*
X033567Y011918D01*
X033417Y011918D01*
X033717Y012069D02*
X033717Y012819D01*
X032039Y013119D02*
X032039Y013270D01*
X030968Y012819D02*
X030968Y012369D01*
X030427Y011469D02*
X030427Y010869D01*
X030577Y010719D01*
X030891Y010869D02*
X030891Y011169D01*
X031041Y011319D01*
X031341Y011319D01*
X031492Y011169D01*
X031492Y011019D01*
X030891Y011019D01*
X030891Y010869D02*
X031041Y010719D01*
X031341Y010719D01*
X031812Y010719D02*
X031812Y011319D01*
X031812Y011019D02*
X032112Y011319D01*
X032262Y011319D01*
X030577Y011319D02*
X030277Y011319D01*
X029957Y011319D02*
X029507Y011319D01*
X029356Y011169D01*
X029507Y011019D01*
X029807Y011019D01*
X029957Y010869D01*
X029807Y010719D01*
X029356Y010719D01*
X028886Y010719D02*
X028586Y010719D01*
X028436Y010869D01*
X028436Y011169D01*
X028586Y011319D01*
X028886Y011319D01*
X029036Y011169D01*
X029036Y011019D01*
X028436Y011019D01*
X027815Y010719D02*
X027815Y011619D01*
X027515Y011619D02*
X028115Y011619D01*
X026657Y012969D02*
X026507Y013119D01*
X026207Y013119D01*
X026057Y012969D01*
X029583Y013119D02*
X029583Y013270D01*
D14*
X027497Y010126D02*
X027497Y008469D01*
X025497Y008469D01*
X027497Y008469D02*
X027497Y006469D01*
X025497Y006469D01*
X024997Y005687D02*
X026769Y005687D01*
X026769Y001750D01*
X024997Y001750D01*
X023225Y001750D01*
X023225Y005687D01*
X024997Y005687D01*
X024747Y004719D02*
X024747Y002719D01*
X025247Y002719D01*
X025247Y004719D01*
X024747Y004719D01*
X023539Y003719D02*
X023541Y003795D01*
X023547Y003871D01*
X023557Y003947D01*
X023571Y004022D01*
X023589Y004096D01*
X023610Y004170D01*
X023636Y004242D01*
X023665Y004312D01*
X023698Y004381D01*
X023734Y004448D01*
X023774Y004513D01*
X023817Y004576D01*
X023864Y004637D01*
X023913Y004695D01*
X023966Y004750D01*
X024021Y004803D01*
X024079Y004852D01*
X024140Y004899D01*
X024203Y004942D01*
X024268Y004982D01*
X024335Y005018D01*
X024404Y005051D01*
X024474Y005080D01*
X024546Y005106D01*
X024620Y005127D01*
X024694Y005145D01*
X024769Y005159D01*
X024845Y005169D01*
X024921Y005175D01*
X024997Y005177D01*
X025073Y005175D01*
X025149Y005169D01*
X025225Y005159D01*
X025300Y005145D01*
X025374Y005127D01*
X025448Y005106D01*
X025520Y005080D01*
X025590Y005051D01*
X025659Y005018D01*
X025726Y004982D01*
X025791Y004942D01*
X025854Y004899D01*
X025915Y004852D01*
X025973Y004803D01*
X026028Y004750D01*
X026081Y004695D01*
X026130Y004637D01*
X026177Y004576D01*
X026220Y004513D01*
X026260Y004448D01*
X026296Y004381D01*
X026329Y004312D01*
X026358Y004242D01*
X026384Y004170D01*
X026405Y004096D01*
X026423Y004022D01*
X026437Y003947D01*
X026447Y003871D01*
X026453Y003795D01*
X026455Y003719D01*
X026453Y003643D01*
X026447Y003567D01*
X026437Y003491D01*
X026423Y003416D01*
X026405Y003342D01*
X026384Y003268D01*
X026358Y003196D01*
X026329Y003126D01*
X026296Y003057D01*
X026260Y002990D01*
X026220Y002925D01*
X026177Y002862D01*
X026130Y002801D01*
X026081Y002743D01*
X026028Y002688D01*
X025973Y002635D01*
X025915Y002586D01*
X025854Y002539D01*
X025791Y002496D01*
X025726Y002456D01*
X025659Y002420D01*
X025590Y002387D01*
X025520Y002358D01*
X025448Y002332D01*
X025374Y002311D01*
X025300Y002293D01*
X025225Y002279D01*
X025149Y002269D01*
X025073Y002263D01*
X024997Y002261D01*
X024921Y002263D01*
X024845Y002269D01*
X024769Y002279D01*
X024694Y002293D01*
X024620Y002311D01*
X024546Y002332D01*
X024474Y002358D01*
X024404Y002387D01*
X024335Y002420D01*
X024268Y002456D01*
X024203Y002496D01*
X024140Y002539D01*
X024079Y002586D01*
X024021Y002635D01*
X023966Y002688D01*
X023913Y002743D01*
X023864Y002801D01*
X023817Y002862D01*
X023774Y002925D01*
X023734Y002990D01*
X023698Y003057D01*
X023665Y003126D01*
X023636Y003196D01*
X023610Y003268D01*
X023589Y003342D01*
X023571Y003416D01*
X023557Y003491D01*
X023547Y003567D01*
X023541Y003643D01*
X023539Y003719D01*
X027497Y004811D02*
X027497Y006469D01*
X027497Y004811D02*
X034938Y004811D01*
X034938Y005106D01*
X036119Y005106D01*
X036119Y009831D01*
X034938Y009831D01*
X034938Y010126D01*
X027497Y010126D01*
X034938Y009831D02*
X034938Y005106D01*
X034454Y002822D02*
X034425Y002793D01*
X033393Y001762D01*
X033702Y001540D01*
X034676Y002514D01*
X034454Y002822D01*
X017269Y002272D02*
X013725Y002272D01*
X013725Y005815D01*
X017269Y005815D01*
X017269Y002272D01*
X013269Y001750D02*
X013269Y005687D01*
X011497Y005687D01*
X009725Y005687D01*
X009725Y001750D01*
X011497Y001750D01*
X013269Y001750D01*
X011747Y002719D02*
X011247Y002719D01*
X011247Y004719D01*
X011747Y004719D01*
X011747Y002719D01*
X010039Y003719D02*
X010041Y003795D01*
X010047Y003871D01*
X010057Y003947D01*
X010071Y004022D01*
X010089Y004096D01*
X010110Y004170D01*
X010136Y004242D01*
X010165Y004312D01*
X010198Y004381D01*
X010234Y004448D01*
X010274Y004513D01*
X010317Y004576D01*
X010364Y004637D01*
X010413Y004695D01*
X010466Y004750D01*
X010521Y004803D01*
X010579Y004852D01*
X010640Y004899D01*
X010703Y004942D01*
X010768Y004982D01*
X010835Y005018D01*
X010904Y005051D01*
X010974Y005080D01*
X011046Y005106D01*
X011120Y005127D01*
X011194Y005145D01*
X011269Y005159D01*
X011345Y005169D01*
X011421Y005175D01*
X011497Y005177D01*
X011573Y005175D01*
X011649Y005169D01*
X011725Y005159D01*
X011800Y005145D01*
X011874Y005127D01*
X011948Y005106D01*
X012020Y005080D01*
X012090Y005051D01*
X012159Y005018D01*
X012226Y004982D01*
X012291Y004942D01*
X012354Y004899D01*
X012415Y004852D01*
X012473Y004803D01*
X012528Y004750D01*
X012581Y004695D01*
X012630Y004637D01*
X012677Y004576D01*
X012720Y004513D01*
X012760Y004448D01*
X012796Y004381D01*
X012829Y004312D01*
X012858Y004242D01*
X012884Y004170D01*
X012905Y004096D01*
X012923Y004022D01*
X012937Y003947D01*
X012947Y003871D01*
X012953Y003795D01*
X012955Y003719D01*
X012953Y003643D01*
X012947Y003567D01*
X012937Y003491D01*
X012923Y003416D01*
X012905Y003342D01*
X012884Y003268D01*
X012858Y003196D01*
X012829Y003126D01*
X012796Y003057D01*
X012760Y002990D01*
X012720Y002925D01*
X012677Y002862D01*
X012630Y002801D01*
X012581Y002743D01*
X012528Y002688D01*
X012473Y002635D01*
X012415Y002586D01*
X012354Y002539D01*
X012291Y002496D01*
X012226Y002456D01*
X012159Y002420D01*
X012090Y002387D01*
X012020Y002358D01*
X011948Y002332D01*
X011874Y002311D01*
X011800Y002293D01*
X011725Y002279D01*
X011649Y002269D01*
X011573Y002263D01*
X011497Y002261D01*
X011421Y002263D01*
X011345Y002269D01*
X011269Y002279D01*
X011194Y002293D01*
X011120Y002311D01*
X011046Y002332D01*
X010974Y002358D01*
X010904Y002387D01*
X010835Y002420D01*
X010768Y002456D01*
X010703Y002496D01*
X010640Y002539D01*
X010579Y002586D01*
X010521Y002635D01*
X010466Y002688D01*
X010413Y002743D01*
X010364Y002801D01*
X010317Y002862D01*
X010274Y002925D01*
X010234Y002990D01*
X010198Y003057D01*
X010165Y003126D01*
X010136Y003196D01*
X010110Y003268D01*
X010089Y003342D01*
X010071Y003416D01*
X010057Y003491D01*
X010047Y003567D01*
X010041Y003643D01*
X010039Y003719D01*
X008747Y004811D02*
X008747Y006469D01*
X010747Y006469D01*
X008747Y006469D02*
X008747Y008469D01*
X010747Y008469D01*
X008747Y008469D02*
X008747Y010126D01*
X001306Y010126D01*
X001306Y009831D01*
X000125Y009831D01*
X000125Y005106D01*
X001306Y005106D01*
X001306Y004811D01*
X008747Y004811D01*
X001306Y005106D02*
X001306Y009831D01*
X001790Y012033D02*
X001568Y012341D01*
X002542Y013316D01*
X002851Y013094D01*
X001819Y012062D01*
X001790Y012033D01*
X010627Y013662D02*
X010627Y010386D01*
X014367Y010386D01*
X014367Y013662D01*
X012497Y013662D01*
X012497Y015354D01*
X011631Y015354D01*
X011631Y013662D01*
X010627Y013662D01*
X011631Y013662D02*
X012497Y013662D01*
D15*
X016113Y011930D02*
X016113Y011025D01*
X016114Y011931D02*
X016115Y011998D01*
X016120Y012066D01*
X016129Y012133D01*
X016141Y012200D01*
X016158Y012265D01*
X016178Y012330D01*
X016202Y012393D01*
X016230Y012455D01*
X016261Y012515D01*
X016296Y012574D01*
X016334Y012630D01*
X016375Y012684D01*
X016419Y012735D01*
X016466Y012784D01*
X016516Y012830D01*
X016568Y012873D01*
X016623Y012912D01*
X016680Y012949D01*
X016739Y012982D01*
X016800Y013012D01*
X016863Y013038D01*
X016927Y013061D01*
X016992Y013079D01*
X017058Y013094D01*
X017125Y013105D01*
X017192Y013113D01*
X017260Y013116D01*
X017328Y013115D01*
X017395Y013111D01*
X017462Y013102D01*
X017529Y013090D01*
X017595Y013073D01*
X017660Y013053D01*
X017723Y013030D01*
X017785Y013002D01*
X017845Y012971D01*
X017904Y012937D01*
X017960Y012899D01*
X018014Y012858D01*
X018066Y012814D01*
X018114Y012767D01*
X018161Y012718D01*
X018160Y012718D02*
X018234Y012643D01*
X018310Y012571D01*
X018389Y012501D01*
X018471Y012435D01*
X018554Y012372D01*
X018640Y012312D01*
X018729Y012255D01*
X018819Y012201D01*
X018911Y012150D01*
X019005Y012103D01*
X019100Y012060D01*
X019197Y012020D01*
X019296Y011983D01*
X019395Y011950D01*
X019496Y011921D01*
X019598Y011895D01*
X019701Y011873D01*
X019804Y011855D01*
X019908Y011841D01*
X020013Y011831D01*
X020117Y011824D01*
X020222Y011821D01*
X020327Y011822D01*
X020432Y011827D01*
X020537Y011836D01*
X020641Y011848D01*
X020745Y011864D01*
X020848Y011884D01*
X020950Y011908D01*
X021052Y011935D01*
X021152Y011967D01*
X021251Y012001D01*
X021349Y012040D01*
X021445Y012082D01*
X021540Y012127D01*
X021633Y012176D01*
X021724Y012228D01*
X021813Y012283D01*
X021900Y012342D01*
X021985Y012404D01*
X022067Y012469D01*
X022147Y012537D01*
X022225Y012607D01*
X022300Y012681D01*
X022372Y012757D01*
X022333Y012718D02*
X022380Y012766D01*
X022429Y012812D01*
X022481Y012854D01*
X022536Y012894D01*
X022592Y012930D01*
X022650Y012963D01*
X022711Y012993D01*
X022772Y013019D01*
X022836Y013042D01*
X022900Y013061D01*
X022965Y013076D01*
X023031Y013088D01*
X023098Y013095D01*
X023165Y013099D01*
X023232Y013100D01*
X023299Y013096D01*
X023366Y013089D01*
X023432Y013077D01*
X023497Y013062D01*
X023562Y013044D01*
X023625Y013021D01*
X023687Y012996D01*
X023748Y012966D01*
X023806Y012933D01*
X023863Y012897D01*
X023917Y012858D01*
X023969Y012816D01*
X024019Y012771D01*
X024066Y012723D01*
X024110Y012673D01*
X024152Y012620D01*
X024190Y012565D01*
X024225Y012507D01*
X024257Y012448D01*
X024285Y012387D01*
X024310Y012325D01*
X024331Y012261D01*
X024348Y012196D01*
X024362Y012131D01*
X024372Y012064D01*
X024379Y011998D01*
X024381Y011931D01*
X024381Y011930D02*
X024381Y011025D01*
X024381Y008663D02*
X024381Y007600D01*
X022379Y006396D01*
X019320Y004814D02*
X019322Y004829D01*
X019328Y004842D01*
X019337Y004854D01*
X019348Y004863D01*
X019362Y004869D01*
X019377Y004871D01*
X019392Y004869D01*
X019405Y004863D01*
X019417Y004854D01*
X019426Y004843D01*
X019432Y004829D01*
X019434Y004814D01*
X019432Y004799D01*
X019426Y004786D01*
X019417Y004774D01*
X019406Y004765D01*
X019392Y004759D01*
X019377Y004757D01*
X019362Y004759D01*
X019349Y004765D01*
X019337Y004774D01*
X019328Y004785D01*
X019322Y004799D01*
X019320Y004814D01*
X018172Y006355D02*
X018244Y006431D01*
X018319Y006505D01*
X018397Y006575D01*
X018477Y006643D01*
X018559Y006708D01*
X018644Y006770D01*
X018731Y006829D01*
X018820Y006884D01*
X018911Y006936D01*
X019004Y006985D01*
X019099Y007030D01*
X019195Y007072D01*
X019293Y007111D01*
X019392Y007145D01*
X019492Y007177D01*
X019594Y007204D01*
X019696Y007228D01*
X019799Y007248D01*
X019903Y007264D01*
X020007Y007276D01*
X020112Y007285D01*
X020217Y007290D01*
X020322Y007291D01*
X020427Y007288D01*
X020531Y007281D01*
X020636Y007271D01*
X020740Y007257D01*
X020843Y007239D01*
X020946Y007217D01*
X021048Y007191D01*
X021149Y007162D01*
X021248Y007129D01*
X021347Y007092D01*
X021444Y007052D01*
X021539Y007009D01*
X021633Y006962D01*
X021725Y006911D01*
X021815Y006857D01*
X021904Y006800D01*
X021990Y006740D01*
X022073Y006677D01*
X022155Y006611D01*
X022234Y006541D01*
X022310Y006469D01*
X022384Y006394D01*
X018165Y006346D02*
X016113Y007600D01*
X016113Y008663D01*
X006416Y003654D02*
X006078Y003654D01*
X005928Y003199D02*
X005928Y002988D01*
X006078Y002534D02*
X006416Y002534D01*
D16*
X014104Y005375D02*
X014106Y005390D01*
X014112Y005404D01*
X014121Y005417D01*
X014132Y005427D01*
X014146Y005433D01*
X014161Y005436D01*
X014176Y005435D01*
X014191Y005430D01*
X014204Y005422D01*
X014214Y005411D01*
X014222Y005397D01*
X014226Y005383D01*
X014226Y005367D01*
X014222Y005353D01*
X014214Y005339D01*
X014204Y005328D01*
X014191Y005320D01*
X014176Y005315D01*
X014161Y005314D01*
X014146Y005317D01*
X014132Y005323D01*
X014121Y005333D01*
X014112Y005346D01*
X014106Y005360D01*
X014104Y005375D01*
D17*
G36*
X001967Y012740D02*
X002143Y012916D01*
X002231Y012828D01*
X002055Y012652D01*
X001967Y012740D01*
G37*
G36*
X034277Y002115D02*
X034101Y001939D01*
X034013Y002027D01*
X034189Y002203D01*
X034277Y002115D01*
G37*
D18*
X031865Y002801D02*
X031865Y003137D01*
X031420Y003182D01*
X031391Y003282D01*
X031351Y003379D01*
X031300Y003471D01*
X031583Y003817D01*
X031345Y004054D01*
X030999Y003772D01*
X030907Y003823D01*
X030811Y003863D01*
X030710Y003892D01*
X030665Y004336D01*
X030329Y004336D01*
X030284Y003892D01*
X030183Y003863D01*
X030087Y003823D01*
X029995Y003772D01*
X029649Y004054D01*
X029411Y003817D01*
X029694Y003471D01*
X029643Y003379D01*
X029603Y003282D01*
X029574Y003182D01*
X029129Y003137D01*
X029129Y002801D01*
X029574Y002756D01*
X029603Y002655D01*
X029643Y002558D01*
X029694Y002467D01*
X029411Y002120D01*
X029649Y001883D01*
X029995Y002165D01*
X030063Y002126D01*
X030134Y002093D01*
X030332Y002571D01*
X030268Y002604D01*
X030210Y002648D01*
X030160Y002700D01*
X030120Y002760D01*
X030091Y002826D01*
X030073Y002897D01*
X030066Y002969D01*
X030074Y003049D01*
X030096Y003127D01*
X030133Y003199D01*
X030182Y003263D01*
X030243Y003316D01*
X030312Y003358D01*
X030388Y003385D01*
X030468Y003398D01*
X030548Y003396D01*
X030627Y003379D01*
X030702Y003348D01*
X030769Y003303D01*
X030826Y003246D01*
X030872Y003180D01*
X030905Y003106D01*
X030924Y003027D01*
X030927Y002947D01*
X030915Y002867D01*
X030889Y002790D01*
X030849Y002720D01*
X030796Y002659D01*
X030733Y002609D01*
X030662Y002571D01*
X030860Y002093D01*
X030931Y002126D01*
X030999Y002165D01*
X031345Y001883D01*
X031583Y002120D01*
X031300Y002467D01*
X031351Y002558D01*
X031391Y002655D01*
X031420Y002756D01*
X031865Y002801D01*
X031865Y002830D02*
X030903Y002830D01*
X030918Y002888D02*
X031865Y002888D01*
X031865Y002945D02*
X030927Y002945D01*
X030925Y003003D02*
X031865Y003003D01*
X031865Y003060D02*
X030916Y003060D01*
X030900Y003118D02*
X031865Y003118D01*
X031481Y003176D02*
X030874Y003176D01*
X030835Y003233D02*
X031405Y003233D01*
X031388Y003291D02*
X030781Y003291D01*
X030700Y003348D02*
X031364Y003348D01*
X031336Y003406D02*
X029658Y003406D01*
X029630Y003348D02*
X030296Y003348D01*
X030214Y003291D02*
X029607Y003291D01*
X029589Y003233D02*
X030160Y003233D01*
X030121Y003176D02*
X029513Y003176D01*
X029129Y003118D02*
X030094Y003118D01*
X030077Y003060D02*
X029129Y003060D01*
X029129Y003003D02*
X030070Y003003D01*
X030068Y002945D02*
X029129Y002945D01*
X029129Y002888D02*
X030075Y002888D01*
X030090Y002830D02*
X029129Y002830D01*
X029406Y002773D02*
X030115Y002773D01*
X030150Y002715D02*
X029586Y002715D01*
X029602Y002658D02*
X030201Y002658D01*
X030276Y002600D02*
X029626Y002600D01*
X029652Y002542D02*
X030320Y002542D01*
X030297Y002485D02*
X029684Y002485D01*
X029662Y002427D02*
X030273Y002427D01*
X030249Y002370D02*
X029615Y002370D01*
X029568Y002312D02*
X030225Y002312D01*
X030201Y002255D02*
X029521Y002255D01*
X029474Y002197D02*
X030177Y002197D01*
X030154Y002140D02*
X030040Y002140D01*
X029964Y002140D02*
X029427Y002140D01*
X029450Y002082D02*
X029893Y002082D01*
X029822Y002024D02*
X029507Y002024D01*
X029565Y001967D02*
X029752Y001967D01*
X029681Y001909D02*
X029622Y001909D01*
X030745Y002370D02*
X031379Y002370D01*
X031333Y002427D02*
X030721Y002427D01*
X030697Y002485D02*
X031311Y002485D01*
X031342Y002542D02*
X030674Y002542D01*
X030717Y002600D02*
X031368Y002600D01*
X031392Y002658D02*
X030794Y002658D01*
X030844Y002715D02*
X031408Y002715D01*
X031588Y002773D02*
X030879Y002773D01*
X030769Y002312D02*
X031426Y002312D01*
X031473Y002255D02*
X030793Y002255D01*
X030817Y002197D02*
X031520Y002197D01*
X031567Y002140D02*
X031031Y002140D01*
X030954Y002140D02*
X030841Y002140D01*
X031101Y002082D02*
X031545Y002082D01*
X031487Y002024D02*
X031172Y002024D01*
X031242Y001967D02*
X031429Y001967D01*
X031372Y001909D02*
X031313Y001909D01*
X031305Y003463D02*
X029690Y003463D01*
X029653Y003521D02*
X031341Y003521D01*
X031388Y003578D02*
X029606Y003578D01*
X029559Y003636D02*
X031435Y003636D01*
X031482Y003694D02*
X029512Y003694D01*
X029465Y003751D02*
X031529Y003751D01*
X031576Y003809D02*
X031044Y003809D01*
X031114Y003866D02*
X031534Y003866D01*
X031476Y003924D02*
X031185Y003924D01*
X031256Y003981D02*
X031419Y003981D01*
X031361Y004039D02*
X031326Y004039D01*
X030933Y003809D02*
X030061Y003809D01*
X029950Y003809D02*
X029418Y003809D01*
X029460Y003866D02*
X029880Y003866D01*
X029809Y003924D02*
X029518Y003924D01*
X029576Y003981D02*
X029738Y003981D01*
X029668Y004039D02*
X029633Y004039D01*
X030196Y003866D02*
X030798Y003866D01*
X030707Y003924D02*
X030287Y003924D01*
X030293Y003981D02*
X030701Y003981D01*
X030695Y004039D02*
X030299Y004039D01*
X030305Y004096D02*
X030689Y004096D01*
X030683Y004154D02*
X030311Y004154D01*
X030316Y004212D02*
X030678Y004212D01*
X030672Y004269D02*
X030322Y004269D01*
X030328Y004327D02*
X030666Y004327D01*
D19*
X001585Y001221D03*
X001585Y001241D03*
X001585Y001260D03*
X001585Y001280D03*
X001585Y001300D03*
X001585Y001319D03*
X001585Y001339D03*
X001585Y001359D03*
X001585Y001378D03*
X001585Y001398D03*
X001585Y001418D03*
X001585Y001437D03*
X001585Y001457D03*
X001584Y001477D03*
X001585Y001497D03*
X001585Y001516D03*
X001585Y001536D03*
X001585Y001556D03*
X001585Y001575D03*
X001585Y001595D03*
X001585Y001614D03*
X001585Y001634D03*
X001585Y001654D03*
X001585Y001674D03*
X001585Y001693D03*
X001585Y001713D03*
X001585Y001733D03*
X001585Y001752D03*
X001585Y001772D03*
X001585Y001792D03*
X001585Y001811D03*
X001585Y001831D03*
X001585Y001851D03*
X001585Y001870D03*
X001585Y001890D03*
X001585Y001910D03*
X001585Y001929D03*
X001585Y001949D03*
X001585Y001969D03*
X001585Y001989D03*
X001585Y002008D03*
X001585Y002028D03*
X001585Y002087D03*
X001584Y002126D03*
X001585Y002166D03*
X001565Y002185D03*
X001585Y002205D03*
X001565Y002264D03*
X001585Y002284D03*
X001585Y002323D03*
X001585Y002362D03*
X001585Y002382D03*
X001585Y002402D03*
X001585Y002421D03*
X001585Y002441D03*
X001585Y002461D03*
X001585Y002500D03*
X001604Y002520D03*
X001604Y002540D03*
X001604Y002559D03*
X001624Y002579D03*
X001624Y002599D03*
X001644Y002638D03*
X002116Y002559D03*
X002195Y002618D03*
X002254Y002579D03*
X002254Y002559D03*
X002136Y002697D03*
X002451Y002579D03*
X002451Y002559D03*
X002451Y002540D03*
X002431Y002500D03*
X002392Y002382D03*
X002392Y002343D03*
X002392Y002323D03*
X002234Y001910D03*
X002215Y001890D03*
X002214Y001851D03*
X002214Y001831D03*
X002214Y001811D03*
X002195Y001772D03*
X002195Y001752D03*
X002195Y001713D03*
X002195Y001693D03*
X002175Y001674D03*
X002175Y001654D03*
X002175Y001634D03*
X002175Y001615D03*
X002175Y001595D03*
X002156Y001516D03*
X002156Y001497D03*
X002156Y001477D03*
X002156Y001457D03*
X002156Y001437D03*
X002155Y001398D03*
X002156Y001378D03*
X002136Y001359D03*
X002136Y001319D03*
X002136Y001300D03*
X002136Y001280D03*
X002136Y001260D03*
X002136Y001241D03*
X002136Y001221D03*
D20*
X002146Y001339D03*
X002146Y001418D03*
X002165Y001536D03*
X002165Y001575D03*
X002185Y001733D03*
X002205Y001792D03*
X002224Y001870D03*
X002441Y002067D03*
X002480Y002107D03*
X002500Y002146D03*
X002520Y002166D03*
X002520Y002185D03*
X002402Y002303D03*
X002382Y002363D03*
X002402Y002402D03*
X002441Y002481D03*
X002539Y002717D03*
X002244Y002697D03*
X001713Y002756D03*
X001693Y002776D03*
X001634Y002618D03*
X001575Y002244D03*
X001575Y002067D03*
X001575Y002048D03*
D21*
X001575Y002107D03*
X001575Y002146D03*
X001575Y002225D03*
X001575Y002303D03*
X001575Y002343D03*
X001594Y002481D03*
X002067Y002658D03*
X002106Y002678D03*
X002185Y002717D03*
X002283Y002677D03*
X002441Y002520D03*
X001968Y002933D03*
X002165Y001555D03*
D22*
X002254Y001930D03*
X002411Y002048D03*
X002451Y002087D03*
X002490Y002126D03*
X002529Y002205D03*
X002431Y002284D03*
X003179Y002461D03*
X002569Y002677D03*
X002549Y002697D03*
X001703Y002717D03*
X001703Y002736D03*
X001683Y002796D03*
D23*
X001703Y002815D03*
X001683Y002658D03*
X002195Y002599D03*
X002470Y002756D03*
X003140Y002481D03*
X002372Y002008D03*
X002274Y001949D03*
D24*
X002293Y001969D03*
X002313Y001988D03*
X002195Y002382D03*
X003100Y002500D03*
X003140Y002363D03*
D25*
X003169Y002441D03*
X002953Y002362D03*
X002500Y002737D03*
X002165Y002933D03*
X001693Y002697D03*
X001693Y002677D03*
X002205Y002441D03*
X002401Y002028D03*
D26*
X002520Y002225D03*
X002205Y002481D03*
X003110Y002343D03*
D27*
X003012Y002441D03*
X002972Y002441D03*
X002933Y002441D03*
X002854Y002441D03*
X002854Y002362D03*
X002736Y002363D03*
X002697Y002323D03*
X002775Y002244D03*
X002992Y002264D03*
X002638Y002461D03*
X002559Y002382D03*
X002520Y002284D03*
X002362Y002481D03*
X002362Y002500D03*
X002362Y002559D03*
X002362Y002599D03*
X002244Y002717D03*
X002283Y002914D03*
X002205Y002953D03*
X002165Y002953D03*
X001870Y002914D03*
X001732Y002638D03*
X002008Y002540D03*
X002008Y002520D03*
X002027Y002599D03*
X002047Y002638D03*
X002519Y002874D03*
X002834Y002619D03*
X002894Y002520D03*
D28*
X002569Y002244D03*
D29*
X002677Y002264D03*
X002834Y002284D03*
D30*
X002913Y002303D03*
D31*
X002972Y002323D03*
X002677Y002599D03*
D32*
X002805Y002540D03*
X002805Y002441D03*
X002805Y002362D03*
X003061Y002441D03*
X002372Y002520D03*
X002372Y002540D03*
X002372Y002579D03*
X002352Y002618D03*
X002333Y002638D03*
X002313Y002658D03*
X002116Y002579D03*
X002037Y002618D03*
X002018Y002579D03*
X002018Y002559D03*
X002018Y002500D03*
X002018Y002481D03*
X002037Y002461D03*
X002057Y002441D03*
X002077Y002422D03*
X002096Y002402D03*
X002195Y002363D03*
X002293Y002402D03*
X002313Y002422D03*
X002333Y002441D03*
X002451Y002874D03*
D33*
X002903Y002382D03*
D34*
X002854Y002402D03*
D35*
X002795Y002422D03*
D36*
X002569Y002441D03*
D37*
X002460Y002461D03*
X003051Y002520D03*
D38*
X002539Y002658D03*
X002441Y002776D03*
X002461Y002796D03*
X002185Y002461D03*
D39*
X002195Y002500D03*
X002195Y002520D03*
X002195Y002540D03*
D40*
X002579Y002638D03*
X002992Y002540D03*
X001772Y002835D03*
D41*
X002362Y002835D03*
X002618Y002618D03*
X002894Y002559D03*
D42*
X002795Y002579D03*
X002342Y002855D03*
D43*
X002411Y002815D03*
D44*
X001880Y002855D03*
D45*
X002047Y002874D03*
D46*
X002027Y002894D03*
D47*
X002067Y002914D03*
M02*
