G75*
%MOIN*%
%OFA0B0*%
%FSLAX24Y24*%
%IPPOS*%
%LPD*%
%AMOC8*
5,1,8,0,0,1.08239X$1,22.5*
%
%ADD10C,0.0000*%
%ADD11C,0.0080*%
%ADD12C,0.0050*%
%ADD13C,0.0100*%
%ADD14C,0.0060*%
%ADD15C,0.0138*%
%ADD16R,0.0250X0.0125*%
%ADD17C,0.0059*%
%ADD18R,0.0079X0.0020*%
%ADD19R,0.0098X0.0020*%
%ADD20R,0.0059X0.0020*%
%ADD21R,0.0118X0.0020*%
%ADD22R,0.0157X0.0020*%
%ADD23R,0.0197X0.0020*%
%ADD24R,0.0138X0.0020*%
%ADD25R,0.0217X0.0020*%
%ADD26R,0.0020X0.0020*%
%ADD27R,0.0354X0.0020*%
%ADD28R,0.0571X0.0020*%
%ADD29R,0.0531X0.0020*%
%ADD30R,0.0492X0.0020*%
%ADD31R,0.0039X0.0020*%
%ADD32R,0.0630X0.0020*%
%ADD33R,0.0768X0.0020*%
%ADD34R,0.0886X0.0020*%
%ADD35R,0.0394X0.0020*%
%ADD36R,0.0256X0.0020*%
%ADD37R,0.0177X0.0020*%
%ADD38R,0.0236X0.0020*%
%ADD39R,0.0295X0.0020*%
%ADD40R,0.0374X0.0020*%
%ADD41R,0.0413X0.0020*%
%ADD42R,0.0276X0.0020*%
%ADD43R,0.0472X0.0020*%
%ADD44R,0.0728X0.0020*%
%ADD45R,0.0610X0.0020*%
%ADD46R,0.0335X0.0020*%
D10*
X001747Y000475D02*
X029997Y000475D01*
X030041Y000477D01*
X030084Y000483D01*
X030126Y000492D01*
X030168Y000505D01*
X030208Y000522D01*
X030247Y000542D01*
X030284Y000565D01*
X030318Y000592D01*
X030351Y000621D01*
X030380Y000654D01*
X030407Y000688D01*
X030430Y000725D01*
X030450Y000764D01*
X030467Y000804D01*
X030480Y000846D01*
X030489Y000888D01*
X030495Y000931D01*
X030497Y000975D01*
X030497Y011850D01*
X030495Y011894D01*
X030489Y011937D01*
X030480Y011979D01*
X030467Y012021D01*
X030450Y012061D01*
X030430Y012100D01*
X030407Y012137D01*
X030380Y012171D01*
X030351Y012204D01*
X030318Y012233D01*
X030284Y012260D01*
X030247Y012283D01*
X030208Y012303D01*
X030168Y012320D01*
X030126Y012333D01*
X030084Y012342D01*
X030041Y012348D01*
X029997Y012350D01*
X001747Y012350D01*
X001703Y012348D01*
X001660Y012342D01*
X001618Y012333D01*
X001576Y012320D01*
X001536Y012303D01*
X001497Y012283D01*
X001460Y012260D01*
X001426Y012233D01*
X001393Y012204D01*
X001364Y012171D01*
X001337Y012137D01*
X001314Y012100D01*
X001294Y012061D01*
X001277Y012021D01*
X001264Y011979D01*
X001255Y011937D01*
X001249Y011894D01*
X001247Y011850D01*
X001247Y000975D01*
X001249Y000931D01*
X001255Y000888D01*
X001264Y000846D01*
X001277Y000804D01*
X001294Y000764D01*
X001314Y000725D01*
X001337Y000688D01*
X001364Y000654D01*
X001393Y000621D01*
X001426Y000592D01*
X001460Y000565D01*
X001497Y000542D01*
X001536Y000522D01*
X001576Y000505D01*
X001618Y000492D01*
X001660Y000483D01*
X001703Y000477D01*
X001747Y000475D01*
D11*
X008528Y002219D02*
X008528Y002431D01*
X008678Y002885D02*
X009016Y002885D01*
X009016Y001765D02*
X008678Y001765D01*
X012195Y002820D02*
X012197Y002835D01*
X012203Y002848D01*
X012212Y002860D01*
X012223Y002869D01*
X012237Y002875D01*
X012252Y002877D01*
X012267Y002875D01*
X012280Y002869D01*
X012292Y002860D01*
X012301Y002849D01*
X012307Y002835D01*
X012309Y002820D01*
X012307Y002805D01*
X012301Y002792D01*
X012292Y002780D01*
X012281Y002771D01*
X012267Y002765D01*
X012252Y002763D01*
X012237Y002765D01*
X012224Y002771D01*
X012212Y002780D01*
X012203Y002791D01*
X012197Y002805D01*
X012195Y002820D01*
X013797Y005611D02*
X013869Y005687D01*
X013944Y005761D01*
X014022Y005831D01*
X014102Y005899D01*
X014184Y005964D01*
X014269Y006026D01*
X014356Y006085D01*
X014445Y006140D01*
X014536Y006192D01*
X014629Y006241D01*
X014724Y006286D01*
X014820Y006328D01*
X014918Y006367D01*
X015017Y006401D01*
X015117Y006433D01*
X015219Y006460D01*
X015321Y006484D01*
X015424Y006504D01*
X015528Y006520D01*
X015632Y006532D01*
X015737Y006541D01*
X015842Y006546D01*
X015947Y006547D01*
X016052Y006544D01*
X016156Y006537D01*
X016261Y006527D01*
X016365Y006513D01*
X016468Y006495D01*
X016571Y006473D01*
X016673Y006447D01*
X016774Y006418D01*
X016873Y006385D01*
X016972Y006348D01*
X017069Y006308D01*
X017164Y006265D01*
X017258Y006218D01*
X017350Y006167D01*
X017440Y006113D01*
X017529Y006056D01*
X017615Y005996D01*
X017698Y005933D01*
X017780Y005867D01*
X017859Y005797D01*
X017935Y005725D01*
X018009Y005650D01*
X018004Y005652D02*
X020006Y006856D01*
X020006Y007919D01*
X020006Y010281D02*
X020006Y011187D01*
X020004Y011254D01*
X019997Y011320D01*
X019987Y011387D01*
X019973Y011452D01*
X019956Y011517D01*
X019935Y011581D01*
X019910Y011643D01*
X019882Y011704D01*
X019850Y011763D01*
X019815Y011821D01*
X019777Y011876D01*
X019735Y011929D01*
X019691Y011979D01*
X019644Y012027D01*
X019594Y012072D01*
X019542Y012114D01*
X019488Y012153D01*
X019431Y012189D01*
X019373Y012222D01*
X019312Y012252D01*
X019250Y012277D01*
X019187Y012300D01*
X019122Y012318D01*
X019057Y012333D01*
X018991Y012345D01*
X018924Y012352D01*
X018857Y012356D01*
X018790Y012355D01*
X018723Y012351D01*
X018656Y012344D01*
X018590Y012332D01*
X018525Y012317D01*
X018461Y012298D01*
X018397Y012275D01*
X018336Y012249D01*
X018275Y012219D01*
X018217Y012186D01*
X018161Y012150D01*
X018106Y012110D01*
X018054Y012068D01*
X018005Y012022D01*
X017958Y011974D01*
X017997Y012014D02*
X017925Y011938D01*
X017850Y011864D01*
X017772Y011794D01*
X017692Y011726D01*
X017610Y011661D01*
X017525Y011599D01*
X017438Y011540D01*
X017349Y011485D01*
X017258Y011433D01*
X017165Y011384D01*
X017070Y011339D01*
X016974Y011297D01*
X016876Y011258D01*
X016777Y011224D01*
X016677Y011192D01*
X016575Y011165D01*
X016473Y011141D01*
X016370Y011121D01*
X016266Y011105D01*
X016162Y011093D01*
X016057Y011084D01*
X015952Y011079D01*
X015847Y011078D01*
X015742Y011081D01*
X015638Y011088D01*
X015533Y011098D01*
X015429Y011112D01*
X015326Y011130D01*
X015223Y011152D01*
X015121Y011178D01*
X015020Y011207D01*
X014921Y011240D01*
X014822Y011277D01*
X014725Y011317D01*
X014630Y011360D01*
X014536Y011407D01*
X014444Y011458D01*
X014354Y011512D01*
X014265Y011569D01*
X014179Y011629D01*
X014096Y011692D01*
X014014Y011758D01*
X013935Y011828D01*
X013859Y011900D01*
X013785Y011975D01*
X013786Y011974D02*
X013739Y012023D01*
X013691Y012070D01*
X013639Y012114D01*
X013585Y012155D01*
X013529Y012193D01*
X013470Y012227D01*
X013410Y012258D01*
X013348Y012286D01*
X013285Y012309D01*
X013220Y012329D01*
X013154Y012346D01*
X013087Y012358D01*
X013020Y012367D01*
X012953Y012371D01*
X012885Y012372D01*
X012817Y012369D01*
X012750Y012361D01*
X012683Y012350D01*
X012617Y012335D01*
X012552Y012317D01*
X012488Y012294D01*
X012425Y012268D01*
X012364Y012238D01*
X012305Y012205D01*
X012248Y012168D01*
X012193Y012129D01*
X012141Y012086D01*
X012091Y012040D01*
X012044Y011991D01*
X012000Y011940D01*
X011959Y011886D01*
X011921Y011830D01*
X011886Y011771D01*
X011855Y011711D01*
X011827Y011649D01*
X011803Y011586D01*
X011783Y011521D01*
X011766Y011456D01*
X011754Y011389D01*
X011745Y011322D01*
X011740Y011254D01*
X011739Y011187D01*
X011738Y011187D02*
X011738Y010281D01*
X010379Y011602D02*
X010268Y011490D01*
X009932Y011490D01*
X009932Y012161D01*
X010268Y012161D01*
X010379Y012049D01*
X010379Y011602D01*
X009689Y011602D02*
X009577Y011490D01*
X009354Y011490D01*
X009242Y011602D01*
X009242Y012161D01*
X009689Y012161D02*
X009689Y011602D01*
X008998Y011490D02*
X008998Y011937D01*
X008775Y012161D01*
X008551Y011937D01*
X008551Y011490D01*
X008551Y011825D02*
X008998Y011825D01*
X005014Y011714D02*
X005014Y011602D01*
X004903Y011490D01*
X004679Y011490D01*
X004567Y011602D01*
X004330Y011490D02*
X004107Y011490D01*
X004219Y011490D02*
X004219Y012161D01*
X004330Y012161D02*
X004107Y012161D01*
X003863Y012161D02*
X003863Y011714D01*
X003640Y011490D01*
X003416Y011714D01*
X003416Y012161D01*
X004567Y012049D02*
X004567Y011937D01*
X004679Y011825D01*
X004903Y011825D01*
X005014Y011714D01*
X005014Y012049D02*
X004903Y012161D01*
X004679Y012161D01*
X004567Y012049D01*
X011738Y007919D02*
X011738Y006856D01*
X013790Y005602D01*
X021695Y003070D02*
X021697Y003085D01*
X021703Y003098D01*
X021712Y003110D01*
X021723Y003119D01*
X021737Y003125D01*
X021752Y003127D01*
X021767Y003125D01*
X021780Y003119D01*
X021792Y003110D01*
X021801Y003099D01*
X021807Y003085D01*
X021809Y003070D01*
X021807Y003055D01*
X021801Y003042D01*
X021792Y003030D01*
X021781Y003021D01*
X021767Y003015D01*
X021752Y003013D01*
X021737Y003015D01*
X021724Y003021D01*
X021712Y003030D01*
X021703Y003041D01*
X021697Y003055D01*
X021695Y003070D01*
D12*
X022997Y003318D02*
X022997Y004975D01*
X020997Y004975D01*
X019519Y004572D02*
X019519Y001028D01*
X015975Y001028D01*
X015975Y004572D01*
X019519Y004572D01*
X022997Y004975D02*
X022997Y006975D01*
X020997Y006975D01*
X022997Y006975D02*
X022997Y008632D01*
X030438Y008632D01*
X030438Y008337D01*
X031619Y008337D01*
X031619Y003613D01*
X030438Y003613D01*
X030438Y008337D01*
X022421Y008327D02*
X022421Y007973D01*
X022419Y007958D01*
X022415Y007943D01*
X022408Y007929D01*
X022398Y007917D01*
X022386Y007907D01*
X022372Y007900D01*
X022357Y007896D01*
X022342Y007894D01*
X021752Y007894D01*
X021737Y007896D01*
X021722Y007900D01*
X021708Y007907D01*
X021696Y007917D01*
X021686Y007929D01*
X021679Y007943D01*
X021675Y007958D01*
X021673Y007973D01*
X021673Y008327D01*
X021675Y008342D01*
X021679Y008357D01*
X021686Y008371D01*
X021696Y008383D01*
X021708Y008393D01*
X021722Y008400D01*
X021737Y008404D01*
X021752Y008406D01*
X022342Y008406D01*
X022357Y008404D01*
X022372Y008400D01*
X022386Y008393D01*
X022398Y008383D01*
X022408Y008371D01*
X022415Y008357D01*
X022419Y008342D01*
X022421Y008327D01*
X022244Y008386D02*
X022244Y007914D01*
X022224Y007914D02*
X022224Y008386D01*
X022185Y008386D02*
X022185Y007914D01*
X017331Y011638D02*
X016981Y011638D01*
X017331Y011988D01*
X017331Y012075D01*
X017244Y012163D01*
X017069Y012163D01*
X016981Y012075D01*
X016802Y012075D02*
X016802Y011988D01*
X016714Y011900D01*
X016802Y011813D01*
X016802Y011725D01*
X016714Y011638D01*
X016539Y011638D01*
X016451Y011725D01*
X016272Y011725D02*
X016185Y011638D01*
X016010Y011638D01*
X015922Y011725D01*
X016272Y012075D01*
X016272Y011725D01*
X015922Y011725D02*
X015922Y012075D01*
X016010Y012163D01*
X016185Y012163D01*
X016272Y012075D01*
X016451Y012075D02*
X016539Y012163D01*
X016714Y012163D01*
X016802Y012075D01*
X016714Y011900D02*
X016627Y011900D01*
X015743Y011988D02*
X015743Y012075D01*
X015655Y012163D01*
X015480Y012163D01*
X015393Y012075D01*
X015213Y012075D02*
X015213Y011900D01*
X015126Y011813D01*
X014863Y011813D01*
X015038Y011813D02*
X015213Y011638D01*
X015393Y011638D02*
X015743Y011988D01*
X015213Y012075D02*
X015126Y012163D01*
X014863Y012163D01*
X014863Y011638D01*
X014684Y011725D02*
X014596Y011638D01*
X014421Y011638D01*
X014334Y011725D01*
X014334Y012075D01*
X014421Y012163D01*
X014596Y012163D01*
X014684Y012075D01*
X015393Y011638D02*
X015743Y011638D01*
X009805Y011281D02*
X008053Y011281D01*
X006872Y011281D01*
X003939Y011281D01*
X003939Y008919D01*
X009805Y008919D01*
X009805Y011281D01*
X008747Y008632D02*
X008747Y006975D01*
X010747Y006975D01*
X008747Y006975D02*
X008747Y004975D01*
X010747Y004975D01*
X008747Y004975D02*
X008747Y003318D01*
X001306Y003318D01*
X001306Y003613D01*
X000125Y003613D01*
X000125Y008337D01*
X001306Y008337D01*
X001306Y003613D01*
X001306Y008337D02*
X001306Y008632D01*
X008747Y008632D01*
X003027Y011548D02*
X001996Y010517D01*
X001967Y010488D01*
X001745Y010796D01*
X002719Y011770D01*
X003027Y011548D01*
X022997Y003318D02*
X030438Y003318D01*
X030438Y003613D01*
X028347Y002994D02*
X028164Y002811D01*
X028347Y002903D02*
X028347Y002719D01*
X028255Y002627D01*
X027888Y002627D01*
X027797Y002719D01*
X027797Y002903D01*
X027888Y002994D01*
X028255Y002994D01*
X028347Y002903D01*
X027383Y002959D02*
X027383Y000991D01*
X026497Y000991D01*
X025611Y000991D01*
X025611Y002959D01*
X026497Y002959D01*
X027383Y002959D01*
X026649Y002483D02*
X026345Y002483D01*
X026345Y001467D01*
X026649Y001467D01*
X026649Y002483D01*
X025808Y001975D02*
X025810Y002027D01*
X025816Y002079D01*
X025826Y002130D01*
X025839Y002180D01*
X025857Y002230D01*
X025878Y002277D01*
X025902Y002323D01*
X025931Y002367D01*
X025962Y002409D01*
X025996Y002448D01*
X026033Y002485D01*
X026073Y002518D01*
X026116Y002549D01*
X026160Y002576D01*
X026206Y002600D01*
X026255Y002620D01*
X026304Y002636D01*
X026355Y002649D01*
X026406Y002658D01*
X026458Y002663D01*
X026510Y002664D01*
X026562Y002661D01*
X026614Y002654D01*
X026665Y002643D01*
X026715Y002629D01*
X026764Y002610D01*
X026811Y002588D01*
X026856Y002563D01*
X026900Y002534D01*
X026941Y002502D01*
X026980Y002467D01*
X027015Y002429D01*
X027048Y002388D01*
X027078Y002346D01*
X027104Y002301D01*
X027127Y002254D01*
X027146Y002205D01*
X027162Y002155D01*
X027174Y002105D01*
X027182Y002053D01*
X027186Y002001D01*
X027186Y001949D01*
X027182Y001897D01*
X027174Y001845D01*
X027162Y001795D01*
X027146Y001745D01*
X027127Y001696D01*
X027104Y001649D01*
X027078Y001604D01*
X027048Y001562D01*
X027015Y001521D01*
X026980Y001483D01*
X026941Y001448D01*
X026900Y001416D01*
X026856Y001387D01*
X026811Y001362D01*
X026764Y001340D01*
X026715Y001321D01*
X026665Y001307D01*
X026614Y001296D01*
X026562Y001289D01*
X026510Y001286D01*
X026458Y001287D01*
X026406Y001292D01*
X026355Y001301D01*
X026304Y001314D01*
X026255Y001330D01*
X026206Y001350D01*
X026160Y001374D01*
X026116Y001401D01*
X026073Y001432D01*
X026033Y001465D01*
X025996Y001502D01*
X025962Y001541D01*
X025931Y001583D01*
X025902Y001627D01*
X025878Y001673D01*
X025857Y001720D01*
X025839Y001770D01*
X025826Y001820D01*
X025816Y001871D01*
X025810Y001923D01*
X025808Y001975D01*
X027797Y002075D02*
X028347Y002075D01*
X028347Y002442D01*
X028072Y002258D02*
X028072Y002075D01*
X028072Y001890D02*
X027888Y001890D01*
X027797Y001798D01*
X027797Y001523D01*
X028347Y001523D01*
X028164Y001523D02*
X028164Y001798D01*
X028072Y001890D01*
X028164Y001706D02*
X028347Y001890D01*
X027797Y002075D02*
X027797Y002442D01*
X028717Y001195D02*
X029748Y002226D01*
X029777Y002255D01*
X029999Y001947D01*
X029025Y000973D01*
X028717Y001195D01*
X028347Y000970D02*
X027797Y000970D01*
X027797Y001337D01*
X028072Y001154D02*
X028072Y000970D01*
D13*
X027312Y009225D02*
X027312Y009826D01*
X027612Y009826D02*
X027762Y009826D01*
X027612Y009826D02*
X027312Y009525D01*
X026992Y009525D02*
X026992Y009675D01*
X026841Y009826D01*
X026541Y009826D01*
X026391Y009675D01*
X026391Y009375D01*
X026541Y009225D01*
X026841Y009225D01*
X026992Y009525D02*
X026391Y009525D01*
X026077Y009225D02*
X025927Y009375D01*
X025927Y009976D01*
X025777Y009826D02*
X026077Y009826D01*
X025457Y009826D02*
X025007Y009826D01*
X024856Y009675D01*
X025007Y009525D01*
X025307Y009525D01*
X025457Y009375D01*
X025307Y009225D01*
X024856Y009225D01*
X024536Y009525D02*
X023936Y009525D01*
X023936Y009375D02*
X023936Y009675D01*
X024086Y009826D01*
X024386Y009826D01*
X024536Y009675D01*
X024536Y009525D01*
X024386Y009225D02*
X024086Y009225D01*
X023936Y009375D01*
X023315Y009225D02*
X023315Y010126D01*
X023015Y010126D02*
X023615Y010126D01*
X023399Y010725D02*
X023399Y011326D01*
X023849Y011326D01*
X023999Y011175D01*
X023999Y010725D01*
X024469Y010875D02*
X024620Y010725D01*
X024469Y010875D02*
X024469Y011476D01*
X024319Y011326D02*
X024620Y011326D01*
X024933Y011326D02*
X025083Y011326D01*
X025083Y010725D01*
X024933Y010725D02*
X025233Y010725D01*
X025547Y010725D02*
X025547Y011326D01*
X025997Y011326D01*
X026148Y011175D01*
X026148Y010725D01*
X026468Y010875D02*
X026618Y010725D01*
X027068Y010725D01*
X027068Y011326D01*
X027389Y011326D02*
X027539Y011326D01*
X027539Y010725D01*
X027389Y010725D02*
X027689Y010725D01*
X028153Y010875D02*
X028303Y010725D01*
X028153Y010875D02*
X028153Y011476D01*
X028002Y011326D02*
X028303Y011326D01*
X028616Y011326D02*
X028616Y010875D01*
X028766Y010725D01*
X029217Y010725D01*
X029217Y010575D02*
X029067Y010425D01*
X028917Y010425D01*
X029217Y010575D02*
X029217Y011326D01*
X027539Y011626D02*
X027539Y011776D01*
X026468Y011326D02*
X026468Y010875D01*
X025083Y011626D02*
X025083Y011776D01*
X023078Y011175D02*
X023078Y010875D01*
X022928Y010725D01*
X022628Y010725D01*
X022478Y010875D01*
X022478Y011175D01*
X022628Y011326D01*
X022928Y011326D01*
X023078Y011175D01*
X022157Y010875D02*
X022007Y010725D01*
X021707Y010725D01*
X021557Y010875D01*
X021557Y011476D01*
X021707Y011626D01*
X022007Y011626D01*
X022157Y011476D01*
D14*
X017711Y005671D02*
X017498Y005671D01*
X017391Y005564D01*
X017174Y005564D02*
X016747Y005137D01*
X016853Y005030D01*
X017067Y005030D01*
X017174Y005137D01*
X017174Y005564D01*
X017067Y005671D01*
X016853Y005671D01*
X016747Y005564D01*
X016747Y005137D01*
X016529Y005137D02*
X016422Y005030D01*
X016209Y005030D01*
X016102Y005137D01*
X016529Y005564D01*
X016529Y005137D01*
X016102Y005137D02*
X016102Y005564D01*
X016209Y005671D01*
X016422Y005671D01*
X016529Y005564D01*
X015885Y005457D02*
X015671Y005030D01*
X015457Y005457D01*
X015240Y005350D02*
X015240Y005244D01*
X014813Y005244D01*
X014813Y005350D02*
X014813Y005137D01*
X014920Y005030D01*
X015133Y005030D01*
X014595Y005030D02*
X014382Y005244D01*
X014489Y005244D02*
X014168Y005244D01*
X014489Y005244D02*
X014595Y005350D01*
X014595Y005564D01*
X014489Y005671D01*
X014168Y005671D01*
X014168Y005030D01*
X014813Y005350D02*
X014920Y005457D01*
X015133Y005457D01*
X015240Y005350D01*
X017391Y005030D02*
X017818Y005457D01*
X017818Y005564D01*
X017711Y005671D01*
X017818Y005030D02*
X017391Y005030D01*
X021662Y002905D02*
X023082Y002905D01*
X023082Y001045D02*
X021662Y001045D01*
X013582Y000795D02*
X012162Y000795D01*
X012162Y002655D02*
X013582Y002655D01*
D15*
X016354Y004132D02*
X016356Y004147D01*
X016362Y004161D01*
X016371Y004174D01*
X016382Y004184D01*
X016396Y004190D01*
X016411Y004193D01*
X016426Y004192D01*
X016441Y004187D01*
X016454Y004179D01*
X016464Y004168D01*
X016472Y004154D01*
X016476Y004140D01*
X016476Y004124D01*
X016472Y004110D01*
X016464Y004096D01*
X016454Y004085D01*
X016441Y004077D01*
X016426Y004072D01*
X016411Y004071D01*
X016396Y004074D01*
X016382Y004080D01*
X016371Y004090D01*
X016362Y004103D01*
X016356Y004117D01*
X016354Y004132D01*
D16*
G36*
X029600Y001548D02*
X029424Y001372D01*
X029336Y001460D01*
X029512Y001636D01*
X029600Y001548D01*
G37*
G36*
X002144Y011195D02*
X002320Y011371D01*
X002408Y011283D01*
X002232Y011107D01*
X002144Y011195D01*
G37*
D17*
X012704Y005718D02*
X012659Y005273D01*
X012558Y005244D01*
X012462Y005204D01*
X012370Y005153D01*
X012024Y005436D01*
X011786Y005198D01*
X012069Y004852D01*
X012018Y004760D01*
X011978Y004664D01*
X011949Y004563D01*
X011504Y004518D01*
X011504Y004182D01*
X011949Y004137D01*
X011978Y004036D01*
X012018Y003940D01*
X012069Y003848D01*
X011786Y003502D01*
X012024Y003264D01*
X012370Y003547D01*
X012438Y003508D01*
X012509Y003475D01*
X012707Y003952D01*
X012643Y003985D01*
X012585Y004029D01*
X012535Y004082D01*
X012495Y004142D01*
X012466Y004208D01*
X012448Y004278D01*
X012441Y004350D01*
X012449Y004430D01*
X012471Y004508D01*
X012508Y004580D01*
X012557Y004644D01*
X012618Y004698D01*
X012687Y004739D01*
X012763Y004767D01*
X012843Y004780D01*
X012923Y004778D01*
X013002Y004760D01*
X013077Y004729D01*
X013144Y004684D01*
X013201Y004627D01*
X013247Y004561D01*
X013280Y004487D01*
X013299Y004409D01*
X013302Y004328D01*
X013290Y004248D01*
X013264Y004172D01*
X013224Y004102D01*
X013171Y004040D01*
X013108Y003990D01*
X013037Y003952D01*
X013235Y003475D01*
X013306Y003508D01*
X013374Y003547D01*
X013720Y003264D01*
X013958Y003502D01*
X013675Y003848D01*
X013726Y003940D01*
X013766Y004036D01*
X013795Y004137D01*
X014240Y004182D01*
X014240Y004518D01*
X013795Y004563D01*
X013766Y004664D01*
X013726Y004760D01*
X013675Y004852D01*
X013958Y005198D01*
X013720Y005436D01*
X013374Y005153D01*
X013282Y005204D01*
X013186Y005244D01*
X013085Y005273D01*
X013040Y005718D01*
X012704Y005718D01*
X012704Y005713D02*
X013040Y005713D01*
X013046Y005655D02*
X012698Y005655D01*
X012692Y005597D02*
X013052Y005597D01*
X013058Y005540D02*
X012686Y005540D01*
X012680Y005482D02*
X013064Y005482D01*
X013070Y005425D02*
X012674Y005425D01*
X012669Y005367D02*
X013076Y005367D01*
X013081Y005310D02*
X012663Y005310D01*
X012587Y005252D02*
X013158Y005252D01*
X013299Y005195D02*
X012445Y005195D01*
X012320Y005195D02*
X011789Y005195D01*
X011836Y005137D02*
X013908Y005137D01*
X013955Y005195D02*
X013424Y005195D01*
X013495Y005252D02*
X013904Y005252D01*
X013847Y005310D02*
X013566Y005310D01*
X013636Y005367D02*
X013789Y005367D01*
X013731Y005425D02*
X013707Y005425D01*
X013861Y005079D02*
X011883Y005079D01*
X011930Y005022D02*
X013814Y005022D01*
X013767Y004964D02*
X011977Y004964D01*
X012024Y004907D02*
X013720Y004907D01*
X013677Y004849D02*
X012067Y004849D01*
X012035Y004792D02*
X013709Y004792D01*
X013737Y004734D02*
X013064Y004734D01*
X013151Y004677D02*
X013761Y004677D01*
X013779Y004619D02*
X013207Y004619D01*
X013247Y004561D02*
X013812Y004561D01*
X014240Y004504D02*
X013273Y004504D01*
X013290Y004446D02*
X014240Y004446D01*
X014240Y004389D02*
X013299Y004389D01*
X013302Y004331D02*
X014240Y004331D01*
X014240Y004274D02*
X013294Y004274D01*
X013279Y004216D02*
X014240Y004216D01*
X014008Y004159D02*
X013256Y004159D01*
X013223Y004101D02*
X013785Y004101D01*
X013768Y004043D02*
X013174Y004043D01*
X013101Y003986D02*
X013745Y003986D01*
X013720Y003928D02*
X013047Y003928D01*
X013071Y003871D02*
X013688Y003871D01*
X013704Y003813D02*
X013094Y003813D01*
X013118Y003756D02*
X013751Y003756D01*
X013798Y003698D02*
X013142Y003698D01*
X013166Y003641D02*
X013845Y003641D01*
X013892Y003583D02*
X013190Y003583D01*
X013214Y003525D02*
X013337Y003525D01*
X013400Y003525D02*
X013938Y003525D01*
X013924Y003468D02*
X013471Y003468D01*
X013541Y003410D02*
X013867Y003410D01*
X013809Y003353D02*
X013612Y003353D01*
X013682Y003295D02*
X013751Y003295D01*
X012626Y003756D02*
X011993Y003756D01*
X012040Y003813D02*
X012650Y003813D01*
X012674Y003871D02*
X012056Y003871D01*
X012024Y003928D02*
X012697Y003928D01*
X012642Y003986D02*
X011999Y003986D01*
X011976Y004043D02*
X012571Y004043D01*
X012522Y004101D02*
X011959Y004101D01*
X011736Y004159D02*
X012488Y004159D01*
X012463Y004216D02*
X011504Y004216D01*
X011504Y004274D02*
X012449Y004274D01*
X012443Y004331D02*
X011504Y004331D01*
X011504Y004389D02*
X012445Y004389D01*
X012454Y004446D02*
X011504Y004446D01*
X011504Y004504D02*
X012470Y004504D01*
X012499Y004561D02*
X011932Y004561D01*
X011965Y004619D02*
X012538Y004619D01*
X012594Y004677D02*
X011983Y004677D01*
X012007Y004734D02*
X012679Y004734D01*
X012249Y005252D02*
X011840Y005252D01*
X011898Y005310D02*
X012178Y005310D01*
X012108Y005367D02*
X011955Y005367D01*
X012013Y005425D02*
X012037Y005425D01*
X011946Y003698D02*
X012602Y003698D01*
X012578Y003641D02*
X011899Y003641D01*
X011853Y003583D02*
X012554Y003583D01*
X012530Y003525D02*
X012407Y003525D01*
X012344Y003525D02*
X011806Y003525D01*
X011820Y003468D02*
X012274Y003468D01*
X012203Y003410D02*
X011878Y003410D01*
X011935Y003353D02*
X012132Y003353D01*
X012062Y003295D02*
X011993Y003295D01*
D18*
X002701Y001835D03*
X002701Y001816D03*
X002701Y001796D03*
X002681Y001757D03*
X002642Y001639D03*
X002642Y001599D03*
X002642Y001580D03*
X002504Y001816D03*
X002504Y001835D03*
X002445Y001875D03*
X002386Y001954D03*
X002366Y001816D03*
X001894Y001895D03*
X001874Y001855D03*
X001874Y001835D03*
X001854Y001816D03*
X001854Y001796D03*
X001854Y001776D03*
X001835Y001757D03*
X001835Y001717D03*
X001835Y001698D03*
X001835Y001678D03*
X001835Y001658D03*
X001835Y001639D03*
X001835Y001619D03*
X001835Y001579D03*
X001835Y001540D03*
X001815Y001520D03*
X001835Y001461D03*
X001815Y001442D03*
X001835Y001422D03*
X001834Y001383D03*
X001835Y001343D03*
X001835Y001284D03*
X001835Y001264D03*
X001835Y001245D03*
X001835Y001225D03*
X001835Y001206D03*
X001835Y001186D03*
X001835Y001166D03*
X001835Y001147D03*
X001835Y001127D03*
X001835Y001107D03*
X001835Y001088D03*
X001835Y001068D03*
X001835Y001048D03*
X001835Y001028D03*
X001835Y001009D03*
X001835Y000989D03*
X001835Y000969D03*
X001835Y000950D03*
X001835Y000930D03*
X001835Y000910D03*
X001835Y000891D03*
X001835Y000871D03*
X001835Y000851D03*
X001835Y000831D03*
X001835Y000812D03*
X001835Y000792D03*
X001835Y000772D03*
X001835Y000753D03*
X001834Y000733D03*
X001835Y000714D03*
X001835Y000694D03*
X001835Y000674D03*
X001835Y000654D03*
X001835Y000635D03*
X001835Y000615D03*
X001835Y000595D03*
X001835Y000576D03*
X001835Y000556D03*
X001835Y000536D03*
X001835Y000517D03*
X001835Y000497D03*
X001835Y000477D03*
X002386Y000477D03*
X002386Y000497D03*
X002386Y000517D03*
X002386Y000536D03*
X002386Y000556D03*
X002386Y000576D03*
X002386Y000615D03*
X002406Y000635D03*
X002405Y000654D03*
X002406Y000694D03*
X002406Y000714D03*
X002406Y000733D03*
X002406Y000753D03*
X002406Y000773D03*
X002425Y000851D03*
X002425Y000871D03*
X002425Y000891D03*
X002425Y000910D03*
X002425Y000930D03*
X002445Y000950D03*
X002445Y000969D03*
X002445Y001009D03*
X002445Y001028D03*
X002464Y001068D03*
X002464Y001087D03*
X002464Y001107D03*
X002465Y001146D03*
X002484Y001166D03*
D19*
X002474Y001127D03*
X002455Y001048D03*
X002435Y000989D03*
X002415Y000832D03*
X002415Y000792D03*
X002396Y000674D03*
X002396Y000595D03*
X002691Y001324D03*
X002730Y001363D03*
X002750Y001402D03*
X002770Y001422D03*
X002770Y001442D03*
X002652Y001560D03*
X002632Y001619D03*
X002652Y001658D03*
X002691Y001737D03*
X002789Y001973D03*
X002494Y001954D03*
X001963Y002013D03*
X001943Y002032D03*
X001884Y001875D03*
X001825Y001501D03*
X001825Y001324D03*
X001825Y001304D03*
D20*
X001825Y001363D03*
X001825Y001402D03*
X001825Y001481D03*
X001825Y001560D03*
X001825Y001599D03*
X001844Y001737D03*
X002317Y001914D03*
X002356Y001934D03*
X002435Y001973D03*
X002533Y001934D03*
X002691Y001776D03*
X002218Y002190D03*
X002415Y000812D03*
D21*
X002504Y001186D03*
X002661Y001304D03*
X002701Y001343D03*
X002740Y001382D03*
X002779Y001461D03*
X002681Y001540D03*
X003429Y001717D03*
X002819Y001934D03*
X002799Y001953D03*
X001953Y001973D03*
X001953Y001993D03*
X001933Y002052D03*
D22*
X001953Y002072D03*
X001933Y001914D03*
X002445Y001855D03*
X002720Y002013D03*
X003390Y001737D03*
X002622Y001265D03*
X002524Y001206D03*
D23*
X002543Y001225D03*
X002563Y001245D03*
X002445Y001639D03*
X003350Y001757D03*
X003390Y001619D03*
D24*
X003419Y001698D03*
X003203Y001619D03*
X002750Y001993D03*
X002415Y002190D03*
X001943Y001953D03*
X001943Y001934D03*
X002455Y001697D03*
X002651Y001284D03*
D25*
X002770Y001481D03*
X002455Y001737D03*
X003360Y001599D03*
D26*
X003262Y001698D03*
X003222Y001698D03*
X003183Y001698D03*
X003104Y001698D03*
X003104Y001619D03*
X002986Y001619D03*
X002947Y001579D03*
X003025Y001501D03*
X003242Y001520D03*
X003144Y001776D03*
X003084Y001875D03*
X002888Y001717D03*
X002809Y001639D03*
X002770Y001540D03*
X002612Y001737D03*
X002612Y001757D03*
X002612Y001816D03*
X002612Y001855D03*
X002494Y001973D03*
X002533Y002170D03*
X002455Y002209D03*
X002415Y002209D03*
X002120Y002170D03*
X001982Y001894D03*
X002258Y001796D03*
X002258Y001776D03*
X002277Y001855D03*
X002297Y001895D03*
X002769Y002131D03*
D27*
X002819Y001501D03*
D28*
X002927Y001521D03*
X003084Y001540D03*
D29*
X003163Y001560D03*
D30*
X003222Y001579D03*
X002927Y001855D03*
D31*
X003055Y001796D03*
X003055Y001698D03*
X003055Y001619D03*
X003311Y001698D03*
X002622Y001776D03*
X002622Y001796D03*
X002622Y001835D03*
X002602Y001875D03*
X002583Y001894D03*
X002563Y001914D03*
X002366Y001835D03*
X002287Y001875D03*
X002268Y001835D03*
X002268Y001816D03*
X002268Y001757D03*
X002268Y001737D03*
X002287Y001717D03*
X002307Y001698D03*
X002327Y001678D03*
X002346Y001658D03*
X002445Y001619D03*
X002543Y001658D03*
X002563Y001678D03*
X002583Y001698D03*
X002701Y002131D03*
D32*
X003153Y001638D03*
D33*
X003104Y001658D03*
D34*
X003045Y001678D03*
D35*
X002819Y001698D03*
D36*
X002710Y001717D03*
X003301Y001776D03*
D37*
X002789Y001914D03*
X002691Y002032D03*
X002711Y002052D03*
X002435Y001717D03*
D38*
X002445Y001757D03*
X002445Y001776D03*
X002445Y001796D03*
D39*
X002829Y001895D03*
X003242Y001796D03*
X002022Y002091D03*
D40*
X002612Y002091D03*
X002868Y001875D03*
X003144Y001816D03*
D41*
X003045Y001835D03*
X002592Y002111D03*
D42*
X002661Y002072D03*
D43*
X002130Y002111D03*
D44*
X002297Y002131D03*
D45*
X002277Y002150D03*
D46*
X002317Y002170D03*
M02*
